999
DXF file generated by netDxf https://github.com/haplokuon/netDxf, Copyright(C) 2009-2020 Daniel Carvajal, Licensed under LGPL
0
SECTION
2
HEADER
9
$ACADVER
1
AC1015
9
$DWGCODEPAGE
3
ANSI_1252
9
$HANDSEED
5
FA
9
$ANGBASE
50
0.0
9
$ANGDIR
70
0
9
$ATTMODE
70
1
9
$AUNITS
70
0
9
$AUPREC
70
0
9
$CECOLOR
62
256
9
$CELTSCALE
40
1.0
9
$CELTYPE
6
ByLayer
9
$CELWEIGHT
370
-1
9
$CLAYER
8
0
9
$CMLJUST
70
0
9
$CMLSCALE
40
20.0
9
$CMLSTYLE
2
Standard
9
$DIMSTYLE
2
Standard
9
$TEXTSIZE
40
2.5
9
$TEXTSTYLE
7
Standard
9
$LUNITS
70
2
9
$LUPREC
70
4
9
$MIRRTEXT
70
0
9
$EXTNAMES
290
1
9
$INSBASE
10
0.0
20
0.0
30
0.0
9
$INSUNITS
70
0
9
$LTSCALE
40
1.0
9
$LWDISPLAY
290
0
9
$PDMODE
70
0
9
$PDSIZE
40
0.0
9
$PLINEGEN
70
0
9
$PSLTSCALE
70
1
9
$TDCREATE
40
2459249.73877602
9
$TDUCREATE
40
2459249.69710942
9
$TDUPDATE
40
2459249.73877609
9
$TDUUPDATE
40
2459249.69710942
9
$TDINDWG
40
0.0
9
$UCSORG
10
0.0
20
0.0
30
0.0
9
$UCSXDIR
10
1.0
20
0.0
30
0.0
9
$UCSYDIR
10
0.0
20
1.0
30
0.0
9
$DIMADEC
70
0
9
$DIMALT
70
0
9
$DIMALTD
70
2
9
$DIMALTF
40
25.4
9
$DIMALTRND
40
0.0
9
$DIMALTTD
70
2
9
$DIMALTTZ
70
0
9
$DIMALTU
70
2
9
$DIMALTZ
70
0
9
$DIMAPOST
1

9
$DIMATFIT
70
3
9
$DIMAUNIT
70
0
9
$DIMASZ
40
0.18
9
$DIMAZIN
70
0
9
$DIMSAH
70
0
9
$DIMBLK
1

9
$DIMLDRBLK
1

9
$DIMCEN
40
0.09
9
$DIMCLRD
70
0
9
$DIMCLRE
70
0
9
$DIMCLRT
70
0
9
$DIMDEC
70
4
9
$DIMDLE
40
0.0
9
$DIMDLI
40
0.38
9
$DIMDSEP
70
46
9
$DIMEXE
40
0.18
9
$DIMEXO
40
0.0625
9
$DIMFXLON
70
0
9
$DIMFXL
40
1.0
9
$DIMGAP
40
0.09
9
$DIMJUST
70
0
9
$DIMLFAC
40
1.0
9
$DIMLUNIT
70
2
9
$DIMLWD
70
-2
9
$DIMLWE
70
-2
9
$DIMPOST
1

9
$DIMRND
40
0.0
9
$DIMSCALE
40
1.0
9
$DIMSD1
70
0
9
$DIMSD2
70
0
9
$DIMSE1
70
0
9
$DIMSE2
70
0
9
$DIMSOXD
70
0
9
$DIMTAD
70
0
9
$DIMTDEC
70
4
9
$DIMTFAC
40
1.0
9
$DIMTIH
70
0
9
$DIMTIX
70
0
9
$DIMTM
40
0.0
9
$DIMTMOVE
70
0
9
$DIMTOFL
70
0
9
$DIMTOH
70
0
9
$DIMTOL
70
0
9
$DIMLIM
70
0
9
$DIMTOLJ
70
1
9
$DIMTP
40
0.0
9
$DIMTXT
40
0.18
9
$DIMTXTDIRECTION
70
0
9
$DIMTZIN
70
0
9
$DIMZIN
70
0
9
$DIMFRAC
70
0
9
$DIMLTYPE
6
ByBlock
9
$DIMLTEX1
6
ByBlock
9
$DIMLTEX2
6
ByBlock
0
ENDSEC
0
SECTION
2
CLASSES
0
CLASS
1
RASTERVARIABLES
2
AcDbRasterVariables
3
ISM
90
0
280
0
281
0
0
ENDSEC
0
SECTION
2
TABLES
0
TABLE
2
APPID
5
4
330
0
100
AcDbSymbolTable
0
APPID
5
18
330
4
100
AcDbSymbolTableRecord
100
AcDbRegAppTableRecord
2
ACAD
70
0
0
APPID
5
F6
330
4
100
AcDbSymbolTableRecord
100
AcDbRegAppTableRecord
2
AcCmTransparency
70
0
0
APPID
5
F7
330
4
100
AcDbSymbolTableRecord
100
AcDbRegAppTableRecord
2
GradientColor1ACI
70
0
0
APPID
5
F8
330
4
100
AcDbSymbolTableRecord
100
AcDbRegAppTableRecord
2
GradientColor2ACI
70
0
0
ENDTAB
0
TABLE
2
VPORT
5
1
330
0
100
AcDbSymbolTable
0
VPORT
5
2
330
1
100
AcDbSymbolTableRecord
100
AcDbViewportTableRecord
2
*Active
70
0
10
0.0
20
0.0
11
1.0
21
1.0
12
0.0
22
0.0
13
0.0
23
0.0
14
0.5
24
0.5
15
10.0
25
10.0
16
0.0
26
0.0
36
1.0
17
0.0
27
0.0
37
0.0
40
10.0
41
1.0
75
0
76
1
0
ENDTAB
0
TABLE
2
LTYPE
5
6
330
0
100
AcDbSymbolTable
0
LTYPE
5
14
330
6
100
AcDbSymbolTableRecord
100
AcDbLinetypeTableRecord
2
Continuous
70
0
3
Solid line
72
65
73
0
40
0.0
0
LTYPE
5
15
330
6
100
AcDbSymbolTableRecord
100
AcDbLinetypeTableRecord
2
ByLayer
70
0
3

72
65
73
0
40
0.0
0
LTYPE
5
16
330
6
100
AcDbSymbolTableRecord
100
AcDbLinetypeTableRecord
2
ByBlock
70
0
3

72
65
73
0
40
0.0
0
ENDTAB
0
TABLE
2
LAYER
5
5
330
0
100
AcDbSymbolTable
0
LAYER
5
13
330
5
100
AcDbSymbolTableRecord
100
AcDbLayerTableRecord
2
0
70
0
62
7
6
Continuous
290
1
370
-3
390
0
0
ENDTAB
0
TABLE
2
STYLE
5
7
330
0
100
AcDbSymbolTable
0
STYLE
5
17
330
7
100
AcDbSymbolTableRecord
100
AcDbTextStyleTableRecord
2
Standard
3
simplex.shx
70
0
71
0
40
0.0
41
1.0
42
0.0
50
0.0
0
STYLE
5
23
330
7
100
AcDbSymbolTableRecord
100
AcDbTextStyleTableRecord
2
Ubuntu Condensed
3

70
0
71
0
40
0.0
41
1.0
42
0.0
50
0.0
1001
ACAD
1000
Ubuntu Condensed
1071
0
0
ENDTAB
0
TABLE
2
DIMSTYLE
5
9
330
0
100
AcDbSymbolTable
100
AcDbDimStyleTable
0
DIMSTYLE
105
19
330
9
100
AcDbSymbolTableRecord
100
AcDbDimStyleTableRecord
2
Standard
3

4

40
1.0
41
0.18
42
0.0625
43
0.38
44
0.18
45
0.0
46
0.0
47
0.0
48
0.0
49
1.0
70
0
71
0
72
0
73
0
74
0
75
0
76
0
77
0
78
0
79
0
140
0.18
141
0.09
143
25.4
144
1.0
146
1.0
147
0.09
148
0.0
170
0
171
2
172
0
174
0
175
0
176
0
177
0
178
0
179
0
271
4
272
4
273
2
274
2
275
0
276
0
277
2
278
46
279
0
280
0
281
0
282
0
283
1
284
0
285
0
286
0
289
3
290
0
294
0
340
17
173
0
345
16
346
16
347
16
371
-2
372
-2
0
ENDTAB
0
TABLE
2
VIEW
5
3
330
0
100
AcDbSymbolTable
0
ENDTAB
0
TABLE
2
UCS
5
B
330
0
100
AcDbSymbolTable
0
ENDTAB
0
TABLE
2
BLOCK_RECORD
5
C
330
0
100
AcDbSymbolTable
0
BLOCK_RECORD
5
1B
330
C
100
AcDbSymbolTableRecord
100
AcDbBlockTableRecord
2
*Model_Space
340
1F
0
BLOCK_RECORD
5
F0
330
C
100
AcDbSymbolTableRecord
100
AcDbBlockTableRecord
2
*Paper_Space
340
F5
0
ENDTAB
0
ENDSEC
0
SECTION
2
BLOCKS
0
BLOCK
5
1D
330
1B
100
AcDbEntity
67
0
8
0
100
AcDbBlockBegin
2
*Model_Space
70
0
10
0.0
20
0.0
30
0.0
3
*Model_Space
4

0
ENDBLK
5
1C
330
1B
100
AcDbEntity
8
0
100
AcDbBlockEnd
0
BLOCK
5
F2
330
F0
100
AcDbEntity
67
1
8
0
100
AcDbBlockBegin
2
*Paper_Space
70
0
10
0.0
20
0.0
30
0.0
3
*Paper_Space
4

0
ENDBLK
5
F1
330
F0
100
AcDbEntity
8
0
100
AcDbBlockEnd
0
ENDSEC
0
SECTION
2
ENTITIES
0
LWPOLYLINE
5
21
330
1B
100
AcDbEntity
67
0
8
0
62
256
6
ByLayer
370
-1
48
1.0
60
0
100
AcDbPolyline
90
4
70
1
38
0.0
39
0.0
10
0.0
20
0.0
40
0.0
41
0.0
42
0.0
10
25.0
20
0.0
40
0.0
41
0.0
42
0.0
10
25.0
20
20.0
40
0.0
41
0.0
42
0.0
10
0.0
20
20.0
40
0.0
41
0.0
42
0.0
210
0.0
220
0.0
230
1.0
0
MTEXT
5
22
330
1B
100
AcDbEntity
67
0
8
0
62
256
6
ByLayer
370
-1
48
1.0
60
0
100
AcDbMText
10
12.5
20
10.0
30
0.0
210
0.0
220
0.0
230
1.0
1
\H5;1 \H3;\U+2126
40
5.0
41
25.0
44
1.0
11
1.0
21
0.0
31
0.0
71
5
72
5
73
1
7
Ubuntu Condensed
0
LWPOLYLINE
5
24
330
1B
100
AcDbEntity
67
0
8
0
62
256
6
ByLayer
370
-1
48
1.0
60
0
100
AcDbPolyline
90
4
70
1
38
0.0
39
0.0
10
25.0
20
0.0
40
0.0
41
0.0
42
0.0
10
50.0
20
0.0
40
0.0
41
0.0
42
0.0
10
50.0
20
20.0
40
0.0
41
0.0
42
0.0
10
25.0
20
20.0
40
0.0
41
0.0
42
0.0
210
0.0
220
0.0
230
1.0
0
MTEXT
5
25
330
1B
100
AcDbEntity
67
0
8
0
62
256
6
ByLayer
370
-1
48
1.0
60
0
100
AcDbMText
10
37.5
20
10.0
30
0.0
210
0.0
220
0.0
230
1.0
1
\H5;1.2 \H3;\U+2126
40
5.0
41
25.0
44
1.0
11
1.0
21
0.0
31
0.0
71
5
72
5
73
1
7
Ubuntu Condensed
0
LWPOLYLINE
5
26
330
1B
100
AcDbEntity
67
0
8
0
62
256
6
ByLayer
370
-1
48
1.0
60
0
100
AcDbPolyline
90
4
70
1
38
0.0
39
0.0
10
50.0
20
0.0
40
0.0
41
0.0
42
0.0
10
75.0
20
0.0
40
0.0
41
0.0
42
0.0
10
75.0
20
20.0
40
0.0
41
0.0
42
0.0
10
50.0
20
20.0
40
0.0
41
0.0
42
0.0
210
0.0
220
0.0
230
1.0
0
MTEXT
5
27
330
1B
100
AcDbEntity
67
0
8
0
62
256
6
ByLayer
370
-1
48
1.0
60
0
100
AcDbMText
10
62.5
20
10.0
30
0.0
210
0.0
220
0.0
230
1.0
1
\H5;1.5 \H3;\U+2126
40
5.0
41
25.0
44
1.0
11
1.0
21
0.0
31
0.0
71
5
72
5
73
1
7
Ubuntu Condensed
0
LWPOLYLINE
5
28
330
1B
100
AcDbEntity
67
0
8
0
62
256
6
ByLayer
370
-1
48
1.0
60
0
100
AcDbPolyline
90
4
70
1
38
0.0
39
0.0
10
75.0
20
0.0
40
0.0
41
0.0
42
0.0
10
100.0
20
0.0
40
0.0
41
0.0
42
0.0
10
100.0
20
20.0
40
0.0
41
0.0
42
0.0
10
75.0
20
20.0
40
0.0
41
0.0
42
0.0
210
0.0
220
0.0
230
1.0
0
MTEXT
5
29
330
1B
100
AcDbEntity
67
0
8
0
62
256
6
ByLayer
370
-1
48
1.0
60
0
100
AcDbMText
10
87.5
20
10.0
30
0.0
210
0.0
220
0.0
230
1.0
1
\H5;1.8 \H3;\U+2126
40
5.0
41
25.0
44
1.0
11
1.0
21
0.0
31
0.0
71
5
72
5
73
1
7
Ubuntu Condensed
0
LWPOLYLINE
5
2A
330
1B
100
AcDbEntity
67
0
8
0
62
256
6
ByLayer
370
-1
48
1.0
60
0
100
AcDbPolyline
90
4
70
1
38
0.0
39
0.0
10
100.0
20
0.0
40
0.0
41
0.0
42
0.0
10
125.0
20
0.0
40
0.0
41
0.0
42
0.0
10
125.0
20
20.0
40
0.0
41
0.0
42
0.0
10
100.0
20
20.0
40
0.0
41
0.0
42
0.0
210
0.0
220
0.0
230
1.0
0
MTEXT
5
2B
330
1B
100
AcDbEntity
67
0
8
0
62
256
6
ByLayer
370
-1
48
1.0
60
0
100
AcDbMText
10
112.5
20
10.0
30
0.0
210
0.0
220
0.0
230
1.0
1
\H5;2.2 \H3;\U+2126
40
5.0
41
25.0
44
1.0
11
1.0
21
0.0
31
0.0
71
5
72
5
73
1
7
Ubuntu Condensed
0
LWPOLYLINE
5
2C
330
1B
100
AcDbEntity
67
0
8
0
62
256
6
ByLayer
370
-1
48
1.0
60
0
100
AcDbPolyline
90
4
70
1
38
0.0
39
0.0
10
125.0
20
0.0
40
0.0
41
0.0
42
0.0
10
150.0
20
0.0
40
0.0
41
0.0
42
0.0
10
150.0
20
20.0
40
0.0
41
0.0
42
0.0
10
125.0
20
20.0
40
0.0
41
0.0
42
0.0
210
0.0
220
0.0
230
1.0
0
MTEXT
5
2D
330
1B
100
AcDbEntity
67
0
8
0
62
256
6
ByLayer
370
-1
48
1.0
60
0
100
AcDbMText
10
137.5
20
10.0
30
0.0
210
0.0
220
0.0
230
1.0
1
\H5;2.7 \H3;\U+2126
40
5.0
41
25.0
44
1.0
11
1.0
21
0.0
31
0.0
71
5
72
5
73
1
7
Ubuntu Condensed
0
LWPOLYLINE
5
2E
330
1B
100
AcDbEntity
67
0
8
0
62
256
6
ByLayer
370
-1
48
1.0
60
0
100
AcDbPolyline
90
4
70
1
38
0.0
39
0.0
10
150.0
20
0.0
40
0.0
41
0.0
42
0.0
10
175.0
20
0.0
40
0.0
41
0.0
42
0.0
10
175.0
20
20.0
40
0.0
41
0.0
42
0.0
10
150.0
20
20.0
40
0.0
41
0.0
42
0.0
210
0.0
220
0.0
230
1.0
0
MTEXT
5
2F
330
1B
100
AcDbEntity
67
0
8
0
62
256
6
ByLayer
370
-1
48
1.0
60
0
100
AcDbMText
10
162.5
20
10.0
30
0.0
210
0.0
220
0.0
230
1.0
1
\H5;3.3 \H3;\U+2126
40
5.0
41
25.0
44
1.0
11
1.0
21
0.0
31
0.0
71
5
72
5
73
1
7
Ubuntu Condensed
0
LWPOLYLINE
5
30
330
1B
100
AcDbEntity
67
0
8
0
62
256
6
ByLayer
370
-1
48
1.0
60
0
100
AcDbPolyline
90
4
70
1
38
0.0
39
0.0
10
0.0
20
20.0
40
0.0
41
0.0
42
0.0
10
25.0
20
20.0
40
0.0
41
0.0
42
0.0
10
25.0
20
40.0
40
0.0
41
0.0
42
0.0
10
0.0
20
40.0
40
0.0
41
0.0
42
0.0
210
0.0
220
0.0
230
1.0
0
MTEXT
5
31
330
1B
100
AcDbEntity
67
0
8
0
62
256
6
ByLayer
370
-1
48
1.0
60
0
100
AcDbMText
10
12.5
20
30.0
30
0.0
210
0.0
220
0.0
230
1.0
1
\H5;3.9 \H3;\U+2126
40
5.0
41
25.0
44
1.0
11
1.0
21
0.0
31
0.0
71
5
72
5
73
1
7
Ubuntu Condensed
0
LWPOLYLINE
5
32
330
1B
100
AcDbEntity
67
0
8
0
62
256
6
ByLayer
370
-1
48
1.0
60
0
100
AcDbPolyline
90
4
70
1
38
0.0
39
0.0
10
25.0
20
20.0
40
0.0
41
0.0
42
0.0
10
50.0
20
20.0
40
0.0
41
0.0
42
0.0
10
50.0
20
40.0
40
0.0
41
0.0
42
0.0
10
25.0
20
40.0
40
0.0
41
0.0
42
0.0
210
0.0
220
0.0
230
1.0
0
MTEXT
5
33
330
1B
100
AcDbEntity
67
0
8
0
62
256
6
ByLayer
370
-1
48
1.0
60
0
100
AcDbMText
10
37.5
20
30.0
30
0.0
210
0.0
220
0.0
230
1.0
1
\H5;4.7 \H3;\U+2126
40
5.0
41
25.0
44
1.0
11
1.0
21
0.0
31
0.0
71
5
72
5
73
1
7
Ubuntu Condensed
0
LWPOLYLINE
5
34
330
1B
100
AcDbEntity
67
0
8
0
62
256
6
ByLayer
370
-1
48
1.0
60
0
100
AcDbPolyline
90
4
70
1
38
0.0
39
0.0
10
50.0
20
20.0
40
0.0
41
0.0
42
0.0
10
75.0
20
20.0
40
0.0
41
0.0
42
0.0
10
75.0
20
40.0
40
0.0
41
0.0
42
0.0
10
50.0
20
40.0
40
0.0
41
0.0
42
0.0
210
0.0
220
0.0
230
1.0
0
MTEXT
5
35
330
1B
100
AcDbEntity
67
0
8
0
62
256
6
ByLayer
370
-1
48
1.0
60
0
100
AcDbMText
10
62.5
20
30.0
30
0.0
210
0.0
220
0.0
230
1.0
1
\H5;5.6 \H3;\U+2126
40
5.0
41
25.0
44
1.0
11
1.0
21
0.0
31
0.0
71
5
72
5
73
1
7
Ubuntu Condensed
0
LWPOLYLINE
5
36
330
1B
100
AcDbEntity
67
0
8
0
62
256
6
ByLayer
370
-1
48
1.0
60
0
100
AcDbPolyline
90
4
70
1
38
0.0
39
0.0
10
75.0
20
20.0
40
0.0
41
0.0
42
0.0
10
100.0
20
20.0
40
0.0
41
0.0
42
0.0
10
100.0
20
40.0
40
0.0
41
0.0
42
0.0
10
75.0
20
40.0
40
0.0
41
0.0
42
0.0
210
0.0
220
0.0
230
1.0
0
MTEXT
5
37
330
1B
100
AcDbEntity
67
0
8
0
62
256
6
ByLayer
370
-1
48
1.0
60
0
100
AcDbMText
10
87.5
20
30.0
30
0.0
210
0.0
220
0.0
230
1.0
1
\H5;6.8 \H3;\U+2126
40
5.0
41
25.0
44
1.0
11
1.0
21
0.0
31
0.0
71
5
72
5
73
1
7
Ubuntu Condensed
0
LWPOLYLINE
5
38
330
1B
100
AcDbEntity
67
0
8
0
62
256
6
ByLayer
370
-1
48
1.0
60
0
100
AcDbPolyline
90
4
70
1
38
0.0
39
0.0
10
100.0
20
20.0
40
0.0
41
0.0
42
0.0
10
125.0
20
20.0
40
0.0
41
0.0
42
0.0
10
125.0
20
40.0
40
0.0
41
0.0
42
0.0
10
100.0
20
40.0
40
0.0
41
0.0
42
0.0
210
0.0
220
0.0
230
1.0
0
MTEXT
5
39
330
1B
100
AcDbEntity
67
0
8
0
62
256
6
ByLayer
370
-1
48
1.0
60
0
100
AcDbMText
10
112.5
20
30.0
30
0.0
210
0.0
220
0.0
230
1.0
1
\H5;7.5 \H3;\U+2126
40
5.0
41
25.0
44
1.0
11
1.0
21
0.0
31
0.0
71
5
72
5
73
1
7
Ubuntu Condensed
0
LWPOLYLINE
5
3A
330
1B
100
AcDbEntity
67
0
8
0
62
256
6
ByLayer
370
-1
48
1.0
60
0
100
AcDbPolyline
90
4
70
1
38
0.0
39
0.0
10
125.0
20
20.0
40
0.0
41
0.0
42
0.0
10
150.0
20
20.0
40
0.0
41
0.0
42
0.0
10
150.0
20
40.0
40
0.0
41
0.0
42
0.0
10
125.0
20
40.0
40
0.0
41
0.0
42
0.0
210
0.0
220
0.0
230
1.0
0
MTEXT
5
3B
330
1B
100
AcDbEntity
67
0
8
0
62
256
6
ByLayer
370
-1
48
1.0
60
0
100
AcDbMText
10
137.5
20
30.0
30
0.0
210
0.0
220
0.0
230
1.0
1
\H5;8.2 \H3;\U+2126
40
5.0
41
25.0
44
1.0
11
1.0
21
0.0
31
0.0
71
5
72
5
73
1
7
Ubuntu Condensed
0
LWPOLYLINE
5
3C
330
1B
100
AcDbEntity
67
0
8
0
62
256
6
ByLayer
370
-1
48
1.0
60
0
100
AcDbPolyline
90
4
70
1
38
0.0
39
0.0
10
150.0
20
20.0
40
0.0
41
0.0
42
0.0
10
175.0
20
20.0
40
0.0
41
0.0
42
0.0
10
175.0
20
40.0
40
0.0
41
0.0
42
0.0
10
150.0
20
40.0
40
0.0
41
0.0
42
0.0
210
0.0
220
0.0
230
1.0
0
MTEXT
5
3D
330
1B
100
AcDbEntity
67
0
8
0
62
256
6
ByLayer
370
-1
48
1.0
60
0
100
AcDbMText
10
162.5
20
30.0
30
0.0
210
0.0
220
0.0
230
1.0
1
\H5;10 \H3;\U+2126
40
5.0
41
25.0
44
1.0
11
1.0
21
0.0
31
0.0
71
5
72
5
73
1
7
Ubuntu Condensed
0
LWPOLYLINE
5
3E
330
1B
100
AcDbEntity
67
0
8
0
62
256
6
ByLayer
370
-1
48
1.0
60
0
100
AcDbPolyline
90
4
70
1
38
0.0
39
0.0
10
0.0
20
40.0
40
0.0
41
0.0
42
0.0
10
25.0
20
40.0
40
0.0
41
0.0
42
0.0
10
25.0
20
60.0
40
0.0
41
0.0
42
0.0
10
0.0
20
60.0
40
0.0
41
0.0
42
0.0
210
0.0
220
0.0
230
1.0
0
MTEXT
5
3F
330
1B
100
AcDbEntity
67
0
8
0
62
256
6
ByLayer
370
-1
48
1.0
60
0
100
AcDbMText
10
12.5
20
50.0
30
0.0
210
0.0
220
0.0
230
1.0
1
\H5;12 \H3;\U+2126
40
5.0
41
25.0
44
1.0
11
1.0
21
0.0
31
0.0
71
5
72
5
73
1
7
Ubuntu Condensed
0
LWPOLYLINE
5
40
330
1B
100
AcDbEntity
67
0
8
0
62
256
6
ByLayer
370
-1
48
1.0
60
0
100
AcDbPolyline
90
4
70
1
38
0.0
39
0.0
10
25.0
20
40.0
40
0.0
41
0.0
42
0.0
10
50.0
20
40.0
40
0.0
41
0.0
42
0.0
10
50.0
20
60.0
40
0.0
41
0.0
42
0.0
10
25.0
20
60.0
40
0.0
41
0.0
42
0.0
210
0.0
220
0.0
230
1.0
0
MTEXT
5
41
330
1B
100
AcDbEntity
67
0
8
0
62
256
6
ByLayer
370
-1
48
1.0
60
0
100
AcDbMText
10
37.5
20
50.0
30
0.0
210
0.0
220
0.0
230
1.0
1
\H5;15 \H3;\U+2126
40
5.0
41
25.0
44
1.0
11
1.0
21
0.0
31
0.0
71
5
72
5
73
1
7
Ubuntu Condensed
0
LWPOLYLINE
5
42
330
1B
100
AcDbEntity
67
0
8
0
62
256
6
ByLayer
370
-1
48
1.0
60
0
100
AcDbPolyline
90
4
70
1
38
0.0
39
0.0
10
50.0
20
40.0
40
0.0
41
0.0
42
0.0
10
75.0
20
40.0
40
0.0
41
0.0
42
0.0
10
75.0
20
60.0
40
0.0
41
0.0
42
0.0
10
50.0
20
60.0
40
0.0
41
0.0
42
0.0
210
0.0
220
0.0
230
1.0
0
MTEXT
5
43
330
1B
100
AcDbEntity
67
0
8
0
62
256
6
ByLayer
370
-1
48
1.0
60
0
100
AcDbMText
10
62.5
20
50.0
30
0.0
210
0.0
220
0.0
230
1.0
1
\H5;18 \H3;\U+2126
40
5.0
41
25.0
44
1.0
11
1.0
21
0.0
31
0.0
71
5
72
5
73
1
7
Ubuntu Condensed
0
LWPOLYLINE
5
44
330
1B
100
AcDbEntity
67
0
8
0
62
256
6
ByLayer
370
-1
48
1.0
60
0
100
AcDbPolyline
90
4
70
1
38
0.0
39
0.0
10
75.0
20
40.0
40
0.0
41
0.0
42
0.0
10
100.0
20
40.0
40
0.0
41
0.0
42
0.0
10
100.0
20
60.0
40
0.0
41
0.0
42
0.0
10
75.0
20
60.0
40
0.0
41
0.0
42
0.0
210
0.0
220
0.0
230
1.0
0
MTEXT
5
45
330
1B
100
AcDbEntity
67
0
8
0
62
256
6
ByLayer
370
-1
48
1.0
60
0
100
AcDbMText
10
87.5
20
50.0
30
0.0
210
0.0
220
0.0
230
1.0
1
\H5;22 \H3;\U+2126
40
5.0
41
25.0
44
1.0
11
1.0
21
0.0
31
0.0
71
5
72
5
73
1
7
Ubuntu Condensed
0
LWPOLYLINE
5
46
330
1B
100
AcDbEntity
67
0
8
0
62
256
6
ByLayer
370
-1
48
1.0
60
0
100
AcDbPolyline
90
4
70
1
38
0.0
39
0.0
10
100.0
20
40.0
40
0.0
41
0.0
42
0.0
10
125.0
20
40.0
40
0.0
41
0.0
42
0.0
10
125.0
20
60.0
40
0.0
41
0.0
42
0.0
10
100.0
20
60.0
40
0.0
41
0.0
42
0.0
210
0.0
220
0.0
230
1.0
0
MTEXT
5
47
330
1B
100
AcDbEntity
67
0
8
0
62
256
6
ByLayer
370
-1
48
1.0
60
0
100
AcDbMText
10
112.5
20
50.0
30
0.0
210
0.0
220
0.0
230
1.0
1
\H5;27 \H3;\U+2126
40
5.0
41
25.0
44
1.0
11
1.0
21
0.0
31
0.0
71
5
72
5
73
1
7
Ubuntu Condensed
0
LWPOLYLINE
5
48
330
1B
100
AcDbEntity
67
0
8
0
62
256
6
ByLayer
370
-1
48
1.0
60
0
100
AcDbPolyline
90
4
70
1
38
0.0
39
0.0
10
125.0
20
40.0
40
0.0
41
0.0
42
0.0
10
150.0
20
40.0
40
0.0
41
0.0
42
0.0
10
150.0
20
60.0
40
0.0
41
0.0
42
0.0
10
125.0
20
60.0
40
0.0
41
0.0
42
0.0
210
0.0
220
0.0
230
1.0
0
MTEXT
5
49
330
1B
100
AcDbEntity
67
0
8
0
62
256
6
ByLayer
370
-1
48
1.0
60
0
100
AcDbMText
10
137.5
20
50.0
30
0.0
210
0.0
220
0.0
230
1.0
1
\H5;33 \H3;\U+2126
40
5.0
41
25.0
44
1.0
11
1.0
21
0.0
31
0.0
71
5
72
5
73
1
7
Ubuntu Condensed
0
LWPOLYLINE
5
4A
330
1B
100
AcDbEntity
67
0
8
0
62
256
6
ByLayer
370
-1
48
1.0
60
0
100
AcDbPolyline
90
4
70
1
38
0.0
39
0.0
10
150.0
20
40.0
40
0.0
41
0.0
42
0.0
10
175.0
20
40.0
40
0.0
41
0.0
42
0.0
10
175.0
20
60.0
40
0.0
41
0.0
42
0.0
10
150.0
20
60.0
40
0.0
41
0.0
42
0.0
210
0.0
220
0.0
230
1.0
0
MTEXT
5
4B
330
1B
100
AcDbEntity
67
0
8
0
62
256
6
ByLayer
370
-1
48
1.0
60
0
100
AcDbMText
10
162.5
20
50.0
30
0.0
210
0.0
220
0.0
230
1.0
1
\H5;39 \H3;\U+2126
40
5.0
41
25.0
44
1.0
11
1.0
21
0.0
31
0.0
71
5
72
5
73
1
7
Ubuntu Condensed
0
LWPOLYLINE
5
4C
330
1B
100
AcDbEntity
67
0
8
0
62
256
6
ByLayer
370
-1
48
1.0
60
0
100
AcDbPolyline
90
4
70
1
38
0.0
39
0.0
10
0.0
20
60.0
40
0.0
41
0.0
42
0.0
10
25.0
20
60.0
40
0.0
41
0.0
42
0.0
10
25.0
20
80.0
40
0.0
41
0.0
42
0.0
10
0.0
20
80.0
40
0.0
41
0.0
42
0.0
210
0.0
220
0.0
230
1.0
0
MTEXT
5
4D
330
1B
100
AcDbEntity
67
0
8
0
62
256
6
ByLayer
370
-1
48
1.0
60
0
100
AcDbMText
10
12.5
20
70.0
30
0.0
210
0.0
220
0.0
230
1.0
1
\H5;47 \H3;\U+2126
40
5.0
41
25.0
44
1.0
11
1.0
21
0.0
31
0.0
71
5
72
5
73
1
7
Ubuntu Condensed
0
LWPOLYLINE
5
4E
330
1B
100
AcDbEntity
67
0
8
0
62
256
6
ByLayer
370
-1
48
1.0
60
0
100
AcDbPolyline
90
4
70
1
38
0.0
39
0.0
10
25.0
20
60.0
40
0.0
41
0.0
42
0.0
10
50.0
20
60.0
40
0.0
41
0.0
42
0.0
10
50.0
20
80.0
40
0.0
41
0.0
42
0.0
10
25.0
20
80.0
40
0.0
41
0.0
42
0.0
210
0.0
220
0.0
230
1.0
0
MTEXT
5
4F
330
1B
100
AcDbEntity
67
0
8
0
62
256
6
ByLayer
370
-1
48
1.0
60
0
100
AcDbMText
10
37.5
20
70.0
30
0.0
210
0.0
220
0.0
230
1.0
1
\H5;56 \H3;\U+2126
40
5.0
41
25.0
44
1.0
11
1.0
21
0.0
31
0.0
71
5
72
5
73
1
7
Ubuntu Condensed
0
LWPOLYLINE
5
50
330
1B
100
AcDbEntity
67
0
8
0
62
256
6
ByLayer
370
-1
48
1.0
60
0
100
AcDbPolyline
90
4
70
1
38
0.0
39
0.0
10
50.0
20
60.0
40
0.0
41
0.0
42
0.0
10
75.0
20
60.0
40
0.0
41
0.0
42
0.0
10
75.0
20
80.0
40
0.0
41
0.0
42
0.0
10
50.0
20
80.0
40
0.0
41
0.0
42
0.0
210
0.0
220
0.0
230
1.0
0
MTEXT
5
51
330
1B
100
AcDbEntity
67
0
8
0
62
256
6
ByLayer
370
-1
48
1.0
60
0
100
AcDbMText
10
62.5
20
70.0
30
0.0
210
0.0
220
0.0
230
1.0
1
\H5;68 \H3;\U+2126
40
5.0
41
25.0
44
1.0
11
1.0
21
0.0
31
0.0
71
5
72
5
73
1
7
Ubuntu Condensed
0
LWPOLYLINE
5
52
330
1B
100
AcDbEntity
67
0
8
0
62
256
6
ByLayer
370
-1
48
1.0
60
0
100
AcDbPolyline
90
4
70
1
38
0.0
39
0.0
10
75.0
20
60.0
40
0.0
41
0.0
42
0.0
10
100.0
20
60.0
40
0.0
41
0.0
42
0.0
10
100.0
20
80.0
40
0.0
41
0.0
42
0.0
10
75.0
20
80.0
40
0.0
41
0.0
42
0.0
210
0.0
220
0.0
230
1.0
0
MTEXT
5
53
330
1B
100
AcDbEntity
67
0
8
0
62
256
6
ByLayer
370
-1
48
1.0
60
0
100
AcDbMText
10
87.5
20
70.0
30
0.0
210
0.0
220
0.0
230
1.0
1
\H5;75 \H3;\U+2126
40
5.0
41
25.0
44
1.0
11
1.0
21
0.0
31
0.0
71
5
72
5
73
1
7
Ubuntu Condensed
0
LWPOLYLINE
5
54
330
1B
100
AcDbEntity
67
0
8
0
62
256
6
ByLayer
370
-1
48
1.0
60
0
100
AcDbPolyline
90
4
70
1
38
0.0
39
0.0
10
100.0
20
60.0
40
0.0
41
0.0
42
0.0
10
125.0
20
60.0
40
0.0
41
0.0
42
0.0
10
125.0
20
80.0
40
0.0
41
0.0
42
0.0
10
100.0
20
80.0
40
0.0
41
0.0
42
0.0
210
0.0
220
0.0
230
1.0
0
MTEXT
5
55
330
1B
100
AcDbEntity
67
0
8
0
62
256
6
ByLayer
370
-1
48
1.0
60
0
100
AcDbMText
10
112.5
20
70.0
30
0.0
210
0.0
220
0.0
230
1.0
1
\H5;82 \H3;\U+2126
40
5.0
41
25.0
44
1.0
11
1.0
21
0.0
31
0.0
71
5
72
5
73
1
7
Ubuntu Condensed
0
LWPOLYLINE
5
56
330
1B
100
AcDbEntity
67
0
8
0
62
256
6
ByLayer
370
-1
48
1.0
60
0
100
AcDbPolyline
90
4
70
1
38
0.0
39
0.0
10
125.0
20
60.0
40
0.0
41
0.0
42
0.0
10
150.0
20
60.0
40
0.0
41
0.0
42
0.0
10
150.0
20
80.0
40
0.0
41
0.0
42
0.0
10
125.0
20
80.0
40
0.0
41
0.0
42
0.0
210
0.0
220
0.0
230
1.0
0
MTEXT
5
57
330
1B
100
AcDbEntity
67
0
8
0
62
256
6
ByLayer
370
-1
48
1.0
60
0
100
AcDbMText
10
137.5
20
70.0
30
0.0
210
0.0
220
0.0
230
1.0
1
\H5;100 \H3;\U+2126
40
5.0
41
25.0
44
1.0
11
1.0
21
0.0
31
0.0
71
5
72
5
73
1
7
Ubuntu Condensed
0
LWPOLYLINE
5
58
330
1B
100
AcDbEntity
67
0
8
0
62
256
6
ByLayer
370
-1
48
1.0
60
0
100
AcDbPolyline
90
4
70
1
38
0.0
39
0.0
10
150.0
20
60.0
40
0.0
41
0.0
42
0.0
10
175.0
20
60.0
40
0.0
41
0.0
42
0.0
10
175.0
20
80.0
40
0.0
41
0.0
42
0.0
10
150.0
20
80.0
40
0.0
41
0.0
42
0.0
210
0.0
220
0.0
230
1.0
0
MTEXT
5
59
330
1B
100
AcDbEntity
67
0
8
0
62
256
6
ByLayer
370
-1
48
1.0
60
0
100
AcDbMText
10
162.5
20
70.0
30
0.0
210
0.0
220
0.0
230
1.0
1
\H5;120 \H3;\U+2126
40
5.0
41
25.0
44
1.0
11
1.0
21
0.0
31
0.0
71
5
72
5
73
1
7
Ubuntu Condensed
0
LWPOLYLINE
5
5A
330
1B
100
AcDbEntity
67
0
8
0
62
256
6
ByLayer
370
-1
48
1.0
60
0
100
AcDbPolyline
90
4
70
1
38
0.0
39
0.0
10
0.0
20
80.0
40
0.0
41
0.0
42
0.0
10
25.0
20
80.0
40
0.0
41
0.0
42
0.0
10
25.0
20
100.0
40
0.0
41
0.0
42
0.0
10
0.0
20
100.0
40
0.0
41
0.0
42
0.0
210
0.0
220
0.0
230
1.0
0
MTEXT
5
5B
330
1B
100
AcDbEntity
67
0
8
0
62
256
6
ByLayer
370
-1
48
1.0
60
0
100
AcDbMText
10
12.5
20
90.0
30
0.0
210
0.0
220
0.0
230
1.0
1
\H5;150 \H3;\U+2126
40
5.0
41
25.0
44
1.0
11
1.0
21
0.0
31
0.0
71
5
72
5
73
1
7
Ubuntu Condensed
0
LWPOLYLINE
5
5C
330
1B
100
AcDbEntity
67
0
8
0
62
256
6
ByLayer
370
-1
48
1.0
60
0
100
AcDbPolyline
90
4
70
1
38
0.0
39
0.0
10
25.0
20
80.0
40
0.0
41
0.0
42
0.0
10
50.0
20
80.0
40
0.0
41
0.0
42
0.0
10
50.0
20
100.0
40
0.0
41
0.0
42
0.0
10
25.0
20
100.0
40
0.0
41
0.0
42
0.0
210
0.0
220
0.0
230
1.0
0
MTEXT
5
5D
330
1B
100
AcDbEntity
67
0
8
0
62
256
6
ByLayer
370
-1
48
1.0
60
0
100
AcDbMText
10
37.5
20
90.0
30
0.0
210
0.0
220
0.0
230
1.0
1
\H5;180 \H3;\U+2126
40
5.0
41
25.0
44
1.0
11
1.0
21
0.0
31
0.0
71
5
72
5
73
1
7
Ubuntu Condensed
0
LWPOLYLINE
5
5E
330
1B
100
AcDbEntity
67
0
8
0
62
256
6
ByLayer
370
-1
48
1.0
60
0
100
AcDbPolyline
90
4
70
1
38
0.0
39
0.0
10
50.0
20
80.0
40
0.0
41
0.0
42
0.0
10
75.0
20
80.0
40
0.0
41
0.0
42
0.0
10
75.0
20
100.0
40
0.0
41
0.0
42
0.0
10
50.0
20
100.0
40
0.0
41
0.0
42
0.0
210
0.0
220
0.0
230
1.0
0
MTEXT
5
5F
330
1B
100
AcDbEntity
67
0
8
0
62
256
6
ByLayer
370
-1
48
1.0
60
0
100
AcDbMText
10
62.5
20
90.0
30
0.0
210
0.0
220
0.0
230
1.0
1
\H5;200 \H3;\U+2126
40
5.0
41
25.0
44
1.0
11
1.0
21
0.0
31
0.0
71
5
72
5
73
1
7
Ubuntu Condensed
0
LWPOLYLINE
5
60
330
1B
100
AcDbEntity
67
0
8
0
62
256
6
ByLayer
370
-1
48
1.0
60
0
100
AcDbPolyline
90
4
70
1
38
0.0
39
0.0
10
75.0
20
80.0
40
0.0
41
0.0
42
0.0
10
100.0
20
80.0
40
0.0
41
0.0
42
0.0
10
100.0
20
100.0
40
0.0
41
0.0
42
0.0
10
75.0
20
100.0
40
0.0
41
0.0
42
0.0
210
0.0
220
0.0
230
1.0
0
MTEXT
5
61
330
1B
100
AcDbEntity
67
0
8
0
62
256
6
ByLayer
370
-1
48
1.0
60
0
100
AcDbMText
10
87.5
20
90.0
30
0.0
210
0.0
220
0.0
230
1.0
1
\H5;220 \H3;\U+2126
40
5.0
41
25.0
44
1.0
11
1.0
21
0.0
31
0.0
71
5
72
5
73
1
7
Ubuntu Condensed
0
LWPOLYLINE
5
62
330
1B
100
AcDbEntity
67
0
8
0
62
256
6
ByLayer
370
-1
48
1.0
60
0
100
AcDbPolyline
90
4
70
1
38
0.0
39
0.0
10
100.0
20
80.0
40
0.0
41
0.0
42
0.0
10
125.0
20
80.0
40
0.0
41
0.0
42
0.0
10
125.0
20
100.0
40
0.0
41
0.0
42
0.0
10
100.0
20
100.0
40
0.0
41
0.0
42
0.0
210
0.0
220
0.0
230
1.0
0
MTEXT
5
63
330
1B
100
AcDbEntity
67
0
8
0
62
256
6
ByLayer
370
-1
48
1.0
60
0
100
AcDbMText
10
112.5
20
90.0
30
0.0
210
0.0
220
0.0
230
1.0
1
\H5;270 \H3;\U+2126
40
5.0
41
25.0
44
1.0
11
1.0
21
0.0
31
0.0
71
5
72
5
73
1
7
Ubuntu Condensed
0
LWPOLYLINE
5
64
330
1B
100
AcDbEntity
67
0
8
0
62
256
6
ByLayer
370
-1
48
1.0
60
0
100
AcDbPolyline
90
4
70
1
38
0.0
39
0.0
10
125.0
20
80.0
40
0.0
41
0.0
42
0.0
10
150.0
20
80.0
40
0.0
41
0.0
42
0.0
10
150.0
20
100.0
40
0.0
41
0.0
42
0.0
10
125.0
20
100.0
40
0.0
41
0.0
42
0.0
210
0.0
220
0.0
230
1.0
0
MTEXT
5
65
330
1B
100
AcDbEntity
67
0
8
0
62
256
6
ByLayer
370
-1
48
1.0
60
0
100
AcDbMText
10
137.5
20
90.0
30
0.0
210
0.0
220
0.0
230
1.0
1
\H5;330 \H3;\U+2126
40
5.0
41
25.0
44
1.0
11
1.0
21
0.0
31
0.0
71
5
72
5
73
1
7
Ubuntu Condensed
0
LWPOLYLINE
5
66
330
1B
100
AcDbEntity
67
0
8
0
62
256
6
ByLayer
370
-1
48
1.0
60
0
100
AcDbPolyline
90
4
70
1
38
0.0
39
0.0
10
150.0
20
80.0
40
0.0
41
0.0
42
0.0
10
175.0
20
80.0
40
0.0
41
0.0
42
0.0
10
175.0
20
100.0
40
0.0
41
0.0
42
0.0
10
150.0
20
100.0
40
0.0
41
0.0
42
0.0
210
0.0
220
0.0
230
1.0
0
MTEXT
5
67
330
1B
100
AcDbEntity
67
0
8
0
62
256
6
ByLayer
370
-1
48
1.0
60
0
100
AcDbMText
10
162.5
20
90.0
30
0.0
210
0.0
220
0.0
230
1.0
1
\H5;390 \H3;\U+2126
40
5.0
41
25.0
44
1.0
11
1.0
21
0.0
31
0.0
71
5
72
5
73
1
7
Ubuntu Condensed
0
LWPOLYLINE
5
68
330
1B
100
AcDbEntity
67
0
8
0
62
256
6
ByLayer
370
-1
48
1.0
60
0
100
AcDbPolyline
90
4
70
1
38
0.0
39
0.0
10
0.0
20
100.0
40
0.0
41
0.0
42
0.0
10
25.0
20
100.0
40
0.0
41
0.0
42
0.0
10
25.0
20
120.0
40
0.0
41
0.0
42
0.0
10
0.0
20
120.0
40
0.0
41
0.0
42
0.0
210
0.0
220
0.0
230
1.0
0
MTEXT
5
69
330
1B
100
AcDbEntity
67
0
8
0
62
256
6
ByLayer
370
-1
48
1.0
60
0
100
AcDbMText
10
12.5
20
110.0
30
0.0
210
0.0
220
0.0
230
1.0
1
\H5;470 \H3;\U+2126
40
5.0
41
25.0
44
1.0
11
1.0
21
0.0
31
0.0
71
5
72
5
73
1
7
Ubuntu Condensed
0
LWPOLYLINE
5
6A
330
1B
100
AcDbEntity
67
0
8
0
62
256
6
ByLayer
370
-1
48
1.0
60
0
100
AcDbPolyline
90
4
70
1
38
0.0
39
0.0
10
25.0
20
100.0
40
0.0
41
0.0
42
0.0
10
50.0
20
100.0
40
0.0
41
0.0
42
0.0
10
50.0
20
120.0
40
0.0
41
0.0
42
0.0
10
25.0
20
120.0
40
0.0
41
0.0
42
0.0
210
0.0
220
0.0
230
1.0
0
MTEXT
5
6B
330
1B
100
AcDbEntity
67
0
8
0
62
256
6
ByLayer
370
-1
48
1.0
60
0
100
AcDbMText
10
37.5
20
110.0
30
0.0
210
0.0
220
0.0
230
1.0
1
\H5;510 \H3;\U+2126
40
5.0
41
25.0
44
1.0
11
1.0
21
0.0
31
0.0
71
5
72
5
73
1
7
Ubuntu Condensed
0
LWPOLYLINE
5
6C
330
1B
100
AcDbEntity
67
0
8
0
62
256
6
ByLayer
370
-1
48
1.0
60
0
100
AcDbPolyline
90
4
70
1
38
0.0
39
0.0
10
50.0
20
100.0
40
0.0
41
0.0
42
0.0
10
75.0
20
100.0
40
0.0
41
0.0
42
0.0
10
75.0
20
120.0
40
0.0
41
0.0
42
0.0
10
50.0
20
120.0
40
0.0
41
0.0
42
0.0
210
0.0
220
0.0
230
1.0
0
MTEXT
5
6D
330
1B
100
AcDbEntity
67
0
8
0
62
256
6
ByLayer
370
-1
48
1.0
60
0
100
AcDbMText
10
62.5
20
110.0
30
0.0
210
0.0
220
0.0
230
1.0
1
\H5;560 \H3;\U+2126
40
5.0
41
25.0
44
1.0
11
1.0
21
0.0
31
0.0
71
5
72
5
73
1
7
Ubuntu Condensed
0
LWPOLYLINE
5
6E
330
1B
100
AcDbEntity
67
0
8
0
62
256
6
ByLayer
370
-1
48
1.0
60
0
100
AcDbPolyline
90
4
70
1
38
0.0
39
0.0
10
75.0
20
100.0
40
0.0
41
0.0
42
0.0
10
100.0
20
100.0
40
0.0
41
0.0
42
0.0
10
100.0
20
120.0
40
0.0
41
0.0
42
0.0
10
75.0
20
120.0
40
0.0
41
0.0
42
0.0
210
0.0
220
0.0
230
1.0
0
MTEXT
5
6F
330
1B
100
AcDbEntity
67
0
8
0
62
256
6
ByLayer
370
-1
48
1.0
60
0
100
AcDbMText
10
87.5
20
110.0
30
0.0
210
0.0
220
0.0
230
1.0
1
\H5;680 \H3;\U+2126
40
5.0
41
25.0
44
1.0
11
1.0
21
0.0
31
0.0
71
5
72
5
73
1
7
Ubuntu Condensed
0
LWPOLYLINE
5
70
330
1B
100
AcDbEntity
67
0
8
0
62
256
6
ByLayer
370
-1
48
1.0
60
0
100
AcDbPolyline
90
4
70
1
38
0.0
39
0.0
10
100.0
20
100.0
40
0.0
41
0.0
42
0.0
10
125.0
20
100.0
40
0.0
41
0.0
42
0.0
10
125.0
20
120.0
40
0.0
41
0.0
42
0.0
10
100.0
20
120.0
40
0.0
41
0.0
42
0.0
210
0.0
220
0.0
230
1.0
0
MTEXT
5
71
330
1B
100
AcDbEntity
67
0
8
0
62
256
6
ByLayer
370
-1
48
1.0
60
0
100
AcDbMText
10
112.5
20
110.0
30
0.0
210
0.0
220
0.0
230
1.0
1
\H5;820 \H3;\U+2126
40
5.0
41
25.0
44
1.0
11
1.0
21
0.0
31
0.0
71
5
72
5
73
1
7
Ubuntu Condensed
0
LWPOLYLINE
5
72
330
1B
100
AcDbEntity
67
0
8
0
62
256
6
ByLayer
370
-1
48
1.0
60
0
100
AcDbPolyline
90
4
70
1
38
0.0
39
0.0
10
125.0
20
100.0
40
0.0
41
0.0
42
0.0
10
150.0
20
100.0
40
0.0
41
0.0
42
0.0
10
150.0
20
120.0
40
0.0
41
0.0
42
0.0
10
125.0
20
120.0
40
0.0
41
0.0
42
0.0
210
0.0
220
0.0
230
1.0
0
MTEXT
5
73
330
1B
100
AcDbEntity
67
0
8
0
62
256
6
ByLayer
370
-1
48
1.0
60
0
100
AcDbMText
10
137.5
20
110.0
30
0.0
210
0.0
220
0.0
230
1.0
1
\H5;1 k \H3;\U+2126
40
5.0
41
25.0
44
1.0
11
1.0
21
0.0
31
0.0
71
5
72
5
73
1
7
Ubuntu Condensed
0
LWPOLYLINE
5
74
330
1B
100
AcDbEntity
67
0
8
0
62
256
6
ByLayer
370
-1
48
1.0
60
0
100
AcDbPolyline
90
4
70
1
38
0.0
39
0.0
10
150.0
20
100.0
40
0.0
41
0.0
42
0.0
10
175.0
20
100.0
40
0.0
41
0.0
42
0.0
10
175.0
20
120.0
40
0.0
41
0.0
42
0.0
10
150.0
20
120.0
40
0.0
41
0.0
42
0.0
210
0.0
220
0.0
230
1.0
0
MTEXT
5
75
330
1B
100
AcDbEntity
67
0
8
0
62
256
6
ByLayer
370
-1
48
1.0
60
0
100
AcDbMText
10
162.5
20
110.0
30
0.0
210
0.0
220
0.0
230
1.0
1
\H5;1.2 k \H3;\U+2126
40
5.0
41
25.0
44
1.0
11
1.0
21
0.0
31
0.0
71
5
72
5
73
1
7
Ubuntu Condensed
0
LWPOLYLINE
5
76
330
1B
100
AcDbEntity
67
0
8
0
62
256
6
ByLayer
370
-1
48
1.0
60
0
100
AcDbPolyline
90
4
70
1
38
0.0
39
0.0
10
0.0
20
120.0
40
0.0
41
0.0
42
0.0
10
25.0
20
120.0
40
0.0
41
0.0
42
0.0
10
25.0
20
140.0
40
0.0
41
0.0
42
0.0
10
0.0
20
140.0
40
0.0
41
0.0
42
0.0
210
0.0
220
0.0
230
1.0
0
MTEXT
5
77
330
1B
100
AcDbEntity
67
0
8
0
62
256
6
ByLayer
370
-1
48
1.0
60
0
100
AcDbMText
10
12.5
20
130.0
30
0.0
210
0.0
220
0.0
230
1.0
1
\H5;1.5 k \H3;\U+2126
40
5.0
41
25.0
44
1.0
11
1.0
21
0.0
31
0.0
71
5
72
5
73
1
7
Ubuntu Condensed
0
LWPOLYLINE
5
78
330
1B
100
AcDbEntity
67
0
8
0
62
256
6
ByLayer
370
-1
48
1.0
60
0
100
AcDbPolyline
90
4
70
1
38
0.0
39
0.0
10
25.0
20
120.0
40
0.0
41
0.0
42
0.0
10
50.0
20
120.0
40
0.0
41
0.0
42
0.0
10
50.0
20
140.0
40
0.0
41
0.0
42
0.0
10
25.0
20
140.0
40
0.0
41
0.0
42
0.0
210
0.0
220
0.0
230
1.0
0
MTEXT
5
79
330
1B
100
AcDbEntity
67
0
8
0
62
256
6
ByLayer
370
-1
48
1.0
60
0
100
AcDbMText
10
37.5
20
130.0
30
0.0
210
0.0
220
0.0
230
1.0
1
\H5;1.8 k \H3;\U+2126
40
5.0
41
25.0
44
1.0
11
1.0
21
0.0
31
0.0
71
5
72
5
73
1
7
Ubuntu Condensed
0
LWPOLYLINE
5
7A
330
1B
100
AcDbEntity
67
0
8
0
62
256
6
ByLayer
370
-1
48
1.0
60
0
100
AcDbPolyline
90
4
70
1
38
0.0
39
0.0
10
50.0
20
120.0
40
0.0
41
0.0
42
0.0
10
75.0
20
120.0
40
0.0
41
0.0
42
0.0
10
75.0
20
140.0
40
0.0
41
0.0
42
0.0
10
50.0
20
140.0
40
0.0
41
0.0
42
0.0
210
0.0
220
0.0
230
1.0
0
MTEXT
5
7B
330
1B
100
AcDbEntity
67
0
8
0
62
256
6
ByLayer
370
-1
48
1.0
60
0
100
AcDbMText
10
62.5
20
130.0
30
0.0
210
0.0
220
0.0
230
1.0
1
\H5;2 k \H3;\U+2126
40
5.0
41
25.0
44
1.0
11
1.0
21
0.0
31
0.0
71
5
72
5
73
1
7
Ubuntu Condensed
0
LWPOLYLINE
5
7C
330
1B
100
AcDbEntity
67
0
8
0
62
256
6
ByLayer
370
-1
48
1.0
60
0
100
AcDbPolyline
90
4
70
1
38
0.0
39
0.0
10
75.0
20
120.0
40
0.0
41
0.0
42
0.0
10
100.0
20
120.0
40
0.0
41
0.0
42
0.0
10
100.0
20
140.0
40
0.0
41
0.0
42
0.0
10
75.0
20
140.0
40
0.0
41
0.0
42
0.0
210
0.0
220
0.0
230
1.0
0
MTEXT
5
7D
330
1B
100
AcDbEntity
67
0
8
0
62
256
6
ByLayer
370
-1
48
1.0
60
0
100
AcDbMText
10
87.5
20
130.0
30
0.0
210
0.0
220
0.0
230
1.0
1
\H5;2.2 k \H3;\U+2126
40
5.0
41
25.0
44
1.0
11
1.0
21
0.0
31
0.0
71
5
72
5
73
1
7
Ubuntu Condensed
0
LWPOLYLINE
5
7E
330
1B
100
AcDbEntity
67
0
8
0
62
256
6
ByLayer
370
-1
48
1.0
60
0
100
AcDbPolyline
90
4
70
1
38
0.0
39
0.0
10
100.0
20
120.0
40
0.0
41
0.0
42
0.0
10
125.0
20
120.0
40
0.0
41
0.0
42
0.0
10
125.0
20
140.0
40
0.0
41
0.0
42
0.0
10
100.0
20
140.0
40
0.0
41
0.0
42
0.0
210
0.0
220
0.0
230
1.0
0
MTEXT
5
7F
330
1B
100
AcDbEntity
67
0
8
0
62
256
6
ByLayer
370
-1
48
1.0
60
0
100
AcDbMText
10
112.5
20
130.0
30
0.0
210
0.0
220
0.0
230
1.0
1
\H5;2.7 k \H3;\U+2126
40
5.0
41
25.0
44
1.0
11
1.0
21
0.0
31
0.0
71
5
72
5
73
1
7
Ubuntu Condensed
0
LWPOLYLINE
5
80
330
1B
100
AcDbEntity
67
0
8
0
62
256
6
ByLayer
370
-1
48
1.0
60
0
100
AcDbPolyline
90
4
70
1
38
0.0
39
0.0
10
125.0
20
120.0
40
0.0
41
0.0
42
0.0
10
150.0
20
120.0
40
0.0
41
0.0
42
0.0
10
150.0
20
140.0
40
0.0
41
0.0
42
0.0
10
125.0
20
140.0
40
0.0
41
0.0
42
0.0
210
0.0
220
0.0
230
1.0
0
MTEXT
5
81
330
1B
100
AcDbEntity
67
0
8
0
62
256
6
ByLayer
370
-1
48
1.0
60
0
100
AcDbMText
10
137.5
20
130.0
30
0.0
210
0.0
220
0.0
230
1.0
1
\H5;3 k \H3;\U+2126
40
5.0
41
25.0
44
1.0
11
1.0
21
0.0
31
0.0
71
5
72
5
73
1
7
Ubuntu Condensed
0
LWPOLYLINE
5
82
330
1B
100
AcDbEntity
67
0
8
0
62
256
6
ByLayer
370
-1
48
1.0
60
0
100
AcDbPolyline
90
4
70
1
38
0.0
39
0.0
10
150.0
20
120.0
40
0.0
41
0.0
42
0.0
10
175.0
20
120.0
40
0.0
41
0.0
42
0.0
10
175.0
20
140.0
40
0.0
41
0.0
42
0.0
10
150.0
20
140.0
40
0.0
41
0.0
42
0.0
210
0.0
220
0.0
230
1.0
0
MTEXT
5
83
330
1B
100
AcDbEntity
67
0
8
0
62
256
6
ByLayer
370
-1
48
1.0
60
0
100
AcDbMText
10
162.5
20
130.0
30
0.0
210
0.0
220
0.0
230
1.0
1
\H5;3.3 k \H3;\U+2126
40
5.0
41
25.0
44
1.0
11
1.0
21
0.0
31
0.0
71
5
72
5
73
1
7
Ubuntu Condensed
0
LWPOLYLINE
5
84
330
1B
100
AcDbEntity
67
0
8
0
62
256
6
ByLayer
370
-1
48
1.0
60
0
100
AcDbPolyline
90
4
70
1
38
0.0
39
0.0
10
0.0
20
140.0
40
0.0
41
0.0
42
0.0
10
25.0
20
140.0
40
0.0
41
0.0
42
0.0
10
25.0
20
160.0
40
0.0
41
0.0
42
0.0
10
0.0
20
160.0
40
0.0
41
0.0
42
0.0
210
0.0
220
0.0
230
1.0
0
MTEXT
5
85
330
1B
100
AcDbEntity
67
0
8
0
62
256
6
ByLayer
370
-1
48
1.0
60
0
100
AcDbMText
10
12.5
20
150.0
30
0.0
210
0.0
220
0.0
230
1.0
1
\H5;3.9 k \H3;\U+2126
40
5.0
41
25.0
44
1.0
11
1.0
21
0.0
31
0.0
71
5
72
5
73
1
7
Ubuntu Condensed
0
LWPOLYLINE
5
86
330
1B
100
AcDbEntity
67
0
8
0
62
256
6
ByLayer
370
-1
48
1.0
60
0
100
AcDbPolyline
90
4
70
1
38
0.0
39
0.0
10
25.0
20
140.0
40
0.0
41
0.0
42
0.0
10
50.0
20
140.0
40
0.0
41
0.0
42
0.0
10
50.0
20
160.0
40
0.0
41
0.0
42
0.0
10
25.0
20
160.0
40
0.0
41
0.0
42
0.0
210
0.0
220
0.0
230
1.0
0
MTEXT
5
87
330
1B
100
AcDbEntity
67
0
8
0
62
256
6
ByLayer
370
-1
48
1.0
60
0
100
AcDbMText
10
37.5
20
150.0
30
0.0
210
0.0
220
0.0
230
1.0
1
\H5;4.7 k \H3;\U+2126
40
5.0
41
25.0
44
1.0
11
1.0
21
0.0
31
0.0
71
5
72
5
73
1
7
Ubuntu Condensed
0
LWPOLYLINE
5
88
330
1B
100
AcDbEntity
67
0
8
0
62
256
6
ByLayer
370
-1
48
1.0
60
0
100
AcDbPolyline
90
4
70
1
38
0.0
39
0.0
10
50.0
20
140.0
40
0.0
41
0.0
42
0.0
10
75.0
20
140.0
40
0.0
41
0.0
42
0.0
10
75.0
20
160.0
40
0.0
41
0.0
42
0.0
10
50.0
20
160.0
40
0.0
41
0.0
42
0.0
210
0.0
220
0.0
230
1.0
0
MTEXT
5
89
330
1B
100
AcDbEntity
67
0
8
0
62
256
6
ByLayer
370
-1
48
1.0
60
0
100
AcDbMText
10
62.5
20
150.0
30
0.0
210
0.0
220
0.0
230
1.0
1
\H5;5.1 k \H3;\U+2126
40
5.0
41
25.0
44
1.0
11
1.0
21
0.0
31
0.0
71
5
72
5
73
1
7
Ubuntu Condensed
0
LWPOLYLINE
5
8A
330
1B
100
AcDbEntity
67
0
8
0
62
256
6
ByLayer
370
-1
48
1.0
60
0
100
AcDbPolyline
90
4
70
1
38
0.0
39
0.0
10
75.0
20
140.0
40
0.0
41
0.0
42
0.0
10
100.0
20
140.0
40
0.0
41
0.0
42
0.0
10
100.0
20
160.0
40
0.0
41
0.0
42
0.0
10
75.0
20
160.0
40
0.0
41
0.0
42
0.0
210
0.0
220
0.0
230
1.0
0
MTEXT
5
8B
330
1B
100
AcDbEntity
67
0
8
0
62
256
6
ByLayer
370
-1
48
1.0
60
0
100
AcDbMText
10
87.5
20
150.0
30
0.0
210
0.0
220
0.0
230
1.0
1
\H5;5.5 k \H3;\U+2126
40
5.0
41
25.0
44
1.0
11
1.0
21
0.0
31
0.0
71
5
72
5
73
1
7
Ubuntu Condensed
0
LWPOLYLINE
5
8C
330
1B
100
AcDbEntity
67
0
8
0
62
256
6
ByLayer
370
-1
48
1.0
60
0
100
AcDbPolyline
90
4
70
1
38
0.0
39
0.0
10
100.0
20
140.0
40
0.0
41
0.0
42
0.0
10
125.0
20
140.0
40
0.0
41
0.0
42
0.0
10
125.0
20
160.0
40
0.0
41
0.0
42
0.0
10
100.0
20
160.0
40
0.0
41
0.0
42
0.0
210
0.0
220
0.0
230
1.0
0
MTEXT
5
8D
330
1B
100
AcDbEntity
67
0
8
0
62
256
6
ByLayer
370
-1
48
1.0
60
0
100
AcDbMText
10
112.5
20
150.0
30
0.0
210
0.0
220
0.0
230
1.0
1
\H5;5.6 k \H3;\U+2126
40
5.0
41
25.0
44
1.0
11
1.0
21
0.0
31
0.0
71
5
72
5
73
1
7
Ubuntu Condensed
0
LWPOLYLINE
5
8E
330
1B
100
AcDbEntity
67
0
8
0
62
256
6
ByLayer
370
-1
48
1.0
60
0
100
AcDbPolyline
90
4
70
1
38
0.0
39
0.0
10
125.0
20
140.0
40
0.0
41
0.0
42
0.0
10
150.0
20
140.0
40
0.0
41
0.0
42
0.0
10
150.0
20
160.0
40
0.0
41
0.0
42
0.0
10
125.0
20
160.0
40
0.0
41
0.0
42
0.0
210
0.0
220
0.0
230
1.0
0
MTEXT
5
8F
330
1B
100
AcDbEntity
67
0
8
0
62
256
6
ByLayer
370
-1
48
1.0
60
0
100
AcDbMText
10
137.5
20
150.0
30
0.0
210
0.0
220
0.0
230
1.0
1
\H5;6.8 k \H3;\U+2126
40
5.0
41
25.0
44
1.0
11
1.0
21
0.0
31
0.0
71
5
72
5
73
1
7
Ubuntu Condensed
0
LWPOLYLINE
5
90
330
1B
100
AcDbEntity
67
0
8
0
62
256
6
ByLayer
370
-1
48
1.0
60
0
100
AcDbPolyline
90
4
70
1
38
0.0
39
0.0
10
150.0
20
140.0
40
0.0
41
0.0
42
0.0
10
175.0
20
140.0
40
0.0
41
0.0
42
0.0
10
175.0
20
160.0
40
0.0
41
0.0
42
0.0
10
150.0
20
160.0
40
0.0
41
0.0
42
0.0
210
0.0
220
0.0
230
1.0
0
MTEXT
5
91
330
1B
100
AcDbEntity
67
0
8
0
62
256
6
ByLayer
370
-1
48
1.0
60
0
100
AcDbMText
10
162.5
20
150.0
30
0.0
210
0.0
220
0.0
230
1.0
1
\H5;7.2 k \H3;\U+2126
40
5.0
41
25.0
44
1.0
11
1.0
21
0.0
31
0.0
71
5
72
5
73
1
7
Ubuntu Condensed
0
LWPOLYLINE
5
92
330
1B
100
AcDbEntity
67
0
8
0
62
256
6
ByLayer
370
-1
48
1.0
60
0
100
AcDbPolyline
90
4
70
1
38
0.0
39
0.0
10
0.0
20
160.0
40
0.0
41
0.0
42
0.0
10
25.0
20
160.0
40
0.0
41
0.0
42
0.0
10
25.0
20
180.0
40
0.0
41
0.0
42
0.0
10
0.0
20
180.0
40
0.0
41
0.0
42
0.0
210
0.0
220
0.0
230
1.0
0
MTEXT
5
93
330
1B
100
AcDbEntity
67
0
8
0
62
256
6
ByLayer
370
-1
48
1.0
60
0
100
AcDbMText
10
12.5
20
170.0
30
0.0
210
0.0
220
0.0
230
1.0
1
\H5;7.5 k \H3;\U+2126
40
5.0
41
25.0
44
1.0
11
1.0
21
0.0
31
0.0
71
5
72
5
73
1
7
Ubuntu Condensed
0
LWPOLYLINE
5
94
330
1B
100
AcDbEntity
67
0
8
0
62
256
6
ByLayer
370
-1
48
1.0
60
0
100
AcDbPolyline
90
4
70
1
38
0.0
39
0.0
10
25.0
20
160.0
40
0.0
41
0.0
42
0.0
10
50.0
20
160.0
40
0.0
41
0.0
42
0.0
10
50.0
20
180.0
40
0.0
41
0.0
42
0.0
10
25.0
20
180.0
40
0.0
41
0.0
42
0.0
210
0.0
220
0.0
230
1.0
0
MTEXT
5
95
330
1B
100
AcDbEntity
67
0
8
0
62
256
6
ByLayer
370
-1
48
1.0
60
0
100
AcDbMText
10
37.5
20
170.0
30
0.0
210
0.0
220
0.0
230
1.0
1
\H5;8.2 k \H3;\U+2126
40
5.0
41
25.0
44
1.0
11
1.0
21
0.0
31
0.0
71
5
72
5
73
1
7
Ubuntu Condensed
0
LWPOLYLINE
5
96
330
1B
100
AcDbEntity
67
0
8
0
62
256
6
ByLayer
370
-1
48
1.0
60
0
100
AcDbPolyline
90
4
70
1
38
0.0
39
0.0
10
50.0
20
160.0
40
0.0
41
0.0
42
0.0
10
75.0
20
160.0
40
0.0
41
0.0
42
0.0
10
75.0
20
180.0
40
0.0
41
0.0
42
0.0
10
50.0
20
180.0
40
0.0
41
0.0
42
0.0
210
0.0
220
0.0
230
1.0
0
MTEXT
5
97
330
1B
100
AcDbEntity
67
0
8
0
62
256
6
ByLayer
370
-1
48
1.0
60
0
100
AcDbMText
10
62.5
20
170.0
30
0.0
210
0.0
220
0.0
230
1.0
1
\H5;10 k \H3;\U+2126
40
5.0
41
25.0
44
1.0
11
1.0
21
0.0
31
0.0
71
5
72
5
73
1
7
Ubuntu Condensed
0
LWPOLYLINE
5
98
330
1B
100
AcDbEntity
67
0
8
0
62
256
6
ByLayer
370
-1
48
1.0
60
0
100
AcDbPolyline
90
4
70
1
38
0.0
39
0.0
10
75.0
20
160.0
40
0.0
41
0.0
42
0.0
10
100.0
20
160.0
40
0.0
41
0.0
42
0.0
10
100.0
20
180.0
40
0.0
41
0.0
42
0.0
10
75.0
20
180.0
40
0.0
41
0.0
42
0.0
210
0.0
220
0.0
230
1.0
0
MTEXT
5
99
330
1B
100
AcDbEntity
67
0
8
0
62
256
6
ByLayer
370
-1
48
1.0
60
0
100
AcDbMText
10
87.5
20
170.0
30
0.0
210
0.0
220
0.0
230
1.0
1
\H5;12 k \H3;\U+2126
40
5.0
41
25.0
44
1.0
11
1.0
21
0.0
31
0.0
71
5
72
5
73
1
7
Ubuntu Condensed
0
LWPOLYLINE
5
9A
330
1B
100
AcDbEntity
67
0
8
0
62
256
6
ByLayer
370
-1
48
1.0
60
0
100
AcDbPolyline
90
4
70
1
38
0.0
39
0.0
10
100.0
20
160.0
40
0.0
41
0.0
42
0.0
10
125.0
20
160.0
40
0.0
41
0.0
42
0.0
10
125.0
20
180.0
40
0.0
41
0.0
42
0.0
10
100.0
20
180.0
40
0.0
41
0.0
42
0.0
210
0.0
220
0.0
230
1.0
0
MTEXT
5
9B
330
1B
100
AcDbEntity
67
0
8
0
62
256
6
ByLayer
370
-1
48
1.0
60
0
100
AcDbMText
10
112.5
20
170.0
30
0.0
210
0.0
220
0.0
230
1.0
1
\H5;15 k \H3;\U+2126
40
5.0
41
25.0
44
1.0
11
1.0
21
0.0
31
0.0
71
5
72
5
73
1
7
Ubuntu Condensed
0
LWPOLYLINE
5
9C
330
1B
100
AcDbEntity
67
0
8
0
62
256
6
ByLayer
370
-1
48
1.0
60
0
100
AcDbPolyline
90
4
70
1
38
0.0
39
0.0
10
125.0
20
160.0
40
0.0
41
0.0
42
0.0
10
150.0
20
160.0
40
0.0
41
0.0
42
0.0
10
150.0
20
180.0
40
0.0
41
0.0
42
0.0
10
125.0
20
180.0
40
0.0
41
0.0
42
0.0
210
0.0
220
0.0
230
1.0
0
MTEXT
5
9D
330
1B
100
AcDbEntity
67
0
8
0
62
256
6
ByLayer
370
-1
48
1.0
60
0
100
AcDbMText
10
137.5
20
170.0
30
0.0
210
0.0
220
0.0
230
1.0
1
\H5;18 k \H3;\U+2126
40
5.0
41
25.0
44
1.0
11
1.0
21
0.0
31
0.0
71
5
72
5
73
1
7
Ubuntu Condensed
0
LWPOLYLINE
5
9E
330
1B
100
AcDbEntity
67
0
8
0
62
256
6
ByLayer
370
-1
48
1.0
60
0
100
AcDbPolyline
90
4
70
1
38
0.0
39
0.0
10
150.0
20
160.0
40
0.0
41
0.0
42
0.0
10
175.0
20
160.0
40
0.0
41
0.0
42
0.0
10
175.0
20
180.0
40
0.0
41
0.0
42
0.0
10
150.0
20
180.0
40
0.0
41
0.0
42
0.0
210
0.0
220
0.0
230
1.0
0
MTEXT
5
9F
330
1B
100
AcDbEntity
67
0
8
0
62
256
6
ByLayer
370
-1
48
1.0
60
0
100
AcDbMText
10
162.5
20
170.0
30
0.0
210
0.0
220
0.0
230
1.0
1
\H5;20 k \H3;\U+2126
40
5.0
41
25.0
44
1.0
11
1.0
21
0.0
31
0.0
71
5
72
5
73
1
7
Ubuntu Condensed
0
LWPOLYLINE
5
A0
330
1B
100
AcDbEntity
67
0
8
0
62
256
6
ByLayer
370
-1
48
1.0
60
0
100
AcDbPolyline
90
4
70
1
38
0.0
39
0.0
10
0.0
20
180.0
40
0.0
41
0.0
42
0.0
10
25.0
20
180.0
40
0.0
41
0.0
42
0.0
10
25.0
20
200.0
40
0.0
41
0.0
42
0.0
10
0.0
20
200.0
40
0.0
41
0.0
42
0.0
210
0.0
220
0.0
230
1.0
0
MTEXT
5
A1
330
1B
100
AcDbEntity
67
0
8
0
62
256
6
ByLayer
370
-1
48
1.0
60
0
100
AcDbMText
10
12.5
20
190.0
30
0.0
210
0.0
220
0.0
230
1.0
1
\H5;22 k \H3;\U+2126
40
5.0
41
25.0
44
1.0
11
1.0
21
0.0
31
0.0
71
5
72
5
73
1
7
Ubuntu Condensed
0
LWPOLYLINE
5
A2
330
1B
100
AcDbEntity
67
0
8
0
62
256
6
ByLayer
370
-1
48
1.0
60
0
100
AcDbPolyline
90
4
70
1
38
0.0
39
0.0
10
25.0
20
180.0
40
0.0
41
0.0
42
0.0
10
50.0
20
180.0
40
0.0
41
0.0
42
0.0
10
50.0
20
200.0
40
0.0
41
0.0
42
0.0
10
25.0
20
200.0
40
0.0
41
0.0
42
0.0
210
0.0
220
0.0
230
1.0
0
MTEXT
5
A3
330
1B
100
AcDbEntity
67
0
8
0
62
256
6
ByLayer
370
-1
48
1.0
60
0
100
AcDbMText
10
37.5
20
190.0
30
0.0
210
0.0
220
0.0
230
1.0
1
\H5;27 k \H3;\U+2126
40
5.0
41
25.0
44
1.0
11
1.0
21
0.0
31
0.0
71
5
72
5
73
1
7
Ubuntu Condensed
0
LWPOLYLINE
5
A4
330
1B
100
AcDbEntity
67
0
8
0
62
256
6
ByLayer
370
-1
48
1.0
60
0
100
AcDbPolyline
90
4
70
1
38
0.0
39
0.0
10
50.0
20
180.0
40
0.0
41
0.0
42
0.0
10
75.0
20
180.0
40
0.0
41
0.0
42
0.0
10
75.0
20
200.0
40
0.0
41
0.0
42
0.0
10
50.0
20
200.0
40
0.0
41
0.0
42
0.0
210
0.0
220
0.0
230
1.0
0
MTEXT
5
A5
330
1B
100
AcDbEntity
67
0
8
0
62
256
6
ByLayer
370
-1
48
1.0
60
0
100
AcDbMText
10
62.5
20
190.0
30
0.0
210
0.0
220
0.0
230
1.0
1
\H5;33 k \H3;\U+2126
40
5.0
41
25.0
44
1.0
11
1.0
21
0.0
31
0.0
71
5
72
5
73
1
7
Ubuntu Condensed
0
LWPOLYLINE
5
A6
330
1B
100
AcDbEntity
67
0
8
0
62
256
6
ByLayer
370
-1
48
1.0
60
0
100
AcDbPolyline
90
4
70
1
38
0.0
39
0.0
10
75.0
20
180.0
40
0.0
41
0.0
42
0.0
10
100.0
20
180.0
40
0.0
41
0.0
42
0.0
10
100.0
20
200.0
40
0.0
41
0.0
42
0.0
10
75.0
20
200.0
40
0.0
41
0.0
42
0.0
210
0.0
220
0.0
230
1.0
0
MTEXT
5
A7
330
1B
100
AcDbEntity
67
0
8
0
62
256
6
ByLayer
370
-1
48
1.0
60
0
100
AcDbMText
10
87.5
20
190.0
30
0.0
210
0.0
220
0.0
230
1.0
1
\H5;39 k \H3;\U+2126
40
5.0
41
25.0
44
1.0
11
1.0
21
0.0
31
0.0
71
5
72
5
73
1
7
Ubuntu Condensed
0
LWPOLYLINE
5
A8
330
1B
100
AcDbEntity
67
0
8
0
62
256
6
ByLayer
370
-1
48
1.0
60
0
100
AcDbPolyline
90
4
70
1
38
0.0
39
0.0
10
100.0
20
180.0
40
0.0
41
0.0
42
0.0
10
125.0
20
180.0
40
0.0
41
0.0
42
0.0
10
125.0
20
200.0
40
0.0
41
0.0
42
0.0
10
100.0
20
200.0
40
0.0
41
0.0
42
0.0
210
0.0
220
0.0
230
1.0
0
MTEXT
5
A9
330
1B
100
AcDbEntity
67
0
8
0
62
256
6
ByLayer
370
-1
48
1.0
60
0
100
AcDbMText
10
112.5
20
190.0
30
0.0
210
0.0
220
0.0
230
1.0
1
\H5;47 k \H3;\U+2126
40
5.0
41
25.0
44
1.0
11
1.0
21
0.0
31
0.0
71
5
72
5
73
1
7
Ubuntu Condensed
0
LWPOLYLINE
5
AA
330
1B
100
AcDbEntity
67
0
8
0
62
256
6
ByLayer
370
-1
48
1.0
60
0
100
AcDbPolyline
90
4
70
1
38
0.0
39
0.0
10
125.0
20
180.0
40
0.0
41
0.0
42
0.0
10
150.0
20
180.0
40
0.0
41
0.0
42
0.0
10
150.0
20
200.0
40
0.0
41
0.0
42
0.0
10
125.0
20
200.0
40
0.0
41
0.0
42
0.0
210
0.0
220
0.0
230
1.0
0
MTEXT
5
AB
330
1B
100
AcDbEntity
67
0
8
0
62
256
6
ByLayer
370
-1
48
1.0
60
0
100
AcDbMText
10
137.5
20
190.0
30
0.0
210
0.0
220
0.0
230
1.0
1
\H5;51 k \H3;\U+2126
40
5.0
41
25.0
44
1.0
11
1.0
21
0.0
31
0.0
71
5
72
5
73
1
7
Ubuntu Condensed
0
LWPOLYLINE
5
AC
330
1B
100
AcDbEntity
67
0
8
0
62
256
6
ByLayer
370
-1
48
1.0
60
0
100
AcDbPolyline
90
4
70
1
38
0.0
39
0.0
10
150.0
20
180.0
40
0.0
41
0.0
42
0.0
10
175.0
20
180.0
40
0.0
41
0.0
42
0.0
10
175.0
20
200.0
40
0.0
41
0.0
42
0.0
10
150.0
20
200.0
40
0.0
41
0.0
42
0.0
210
0.0
220
0.0
230
1.0
0
MTEXT
5
AD
330
1B
100
AcDbEntity
67
0
8
0
62
256
6
ByLayer
370
-1
48
1.0
60
0
100
AcDbMText
10
162.5
20
190.0
30
0.0
210
0.0
220
0.0
230
1.0
1
\H5;56 k \H3;\U+2126
40
5.0
41
25.0
44
1.0
11
1.0
21
0.0
31
0.0
71
5
72
5
73
1
7
Ubuntu Condensed
0
LWPOLYLINE
5
AE
330
1B
100
AcDbEntity
67
0
8
0
62
256
6
ByLayer
370
-1
48
1.0
60
0
100
AcDbPolyline
90
4
70
1
38
0.0
39
0.0
10
0.0
20
200.0
40
0.0
41
0.0
42
0.0
10
25.0
20
200.0
40
0.0
41
0.0
42
0.0
10
25.0
20
220.0
40
0.0
41
0.0
42
0.0
10
0.0
20
220.0
40
0.0
41
0.0
42
0.0
210
0.0
220
0.0
230
1.0
0
MTEXT
5
AF
330
1B
100
AcDbEntity
67
0
8
0
62
256
6
ByLayer
370
-1
48
1.0
60
0
100
AcDbMText
10
12.5
20
210.0
30
0.0
210
0.0
220
0.0
230
1.0
1
\H5;68 k \H3;\U+2126
40
5.0
41
25.0
44
1.0
11
1.0
21
0.0
31
0.0
71
5
72
5
73
1
7
Ubuntu Condensed
0
LWPOLYLINE
5
B0
330
1B
100
AcDbEntity
67
0
8
0
62
256
6
ByLayer
370
-1
48
1.0
60
0
100
AcDbPolyline
90
4
70
1
38
0.0
39
0.0
10
25.0
20
200.0
40
0.0
41
0.0
42
0.0
10
50.0
20
200.0
40
0.0
41
0.0
42
0.0
10
50.0
20
220.0
40
0.0
41
0.0
42
0.0
10
25.0
20
220.0
40
0.0
41
0.0
42
0.0
210
0.0
220
0.0
230
1.0
0
MTEXT
5
B1
330
1B
100
AcDbEntity
67
0
8
0
62
256
6
ByLayer
370
-1
48
1.0
60
0
100
AcDbMText
10
37.5
20
210.0
30
0.0
210
0.0
220
0.0
230
1.0
1
\H5;75 k \H3;\U+2126
40
5.0
41
25.0
44
1.0
11
1.0
21
0.0
31
0.0
71
5
72
5
73
1
7
Ubuntu Condensed
0
LWPOLYLINE
5
B2
330
1B
100
AcDbEntity
67
0
8
0
62
256
6
ByLayer
370
-1
48
1.0
60
0
100
AcDbPolyline
90
4
70
1
38
0.0
39
0.0
10
50.0
20
200.0
40
0.0
41
0.0
42
0.0
10
75.0
20
200.0
40
0.0
41
0.0
42
0.0
10
75.0
20
220.0
40
0.0
41
0.0
42
0.0
10
50.0
20
220.0
40
0.0
41
0.0
42
0.0
210
0.0
220
0.0
230
1.0
0
MTEXT
5
B3
330
1B
100
AcDbEntity
67
0
8
0
62
256
6
ByLayer
370
-1
48
1.0
60
0
100
AcDbMText
10
62.5
20
210.0
30
0.0
210
0.0
220
0.0
230
1.0
1
\H5;82 k \H3;\U+2126
40
5.0
41
25.0
44
1.0
11
1.0
21
0.0
31
0.0
71
5
72
5
73
1
7
Ubuntu Condensed
0
LWPOLYLINE
5
B4
330
1B
100
AcDbEntity
67
0
8
0
62
256
6
ByLayer
370
-1
48
1.0
60
0
100
AcDbPolyline
90
4
70
1
38
0.0
39
0.0
10
75.0
20
200.0
40
0.0
41
0.0
42
0.0
10
100.0
20
200.0
40
0.0
41
0.0
42
0.0
10
100.0
20
220.0
40
0.0
41
0.0
42
0.0
10
75.0
20
220.0
40
0.0
41
0.0
42
0.0
210
0.0
220
0.0
230
1.0
0
MTEXT
5
B5
330
1B
100
AcDbEntity
67
0
8
0
62
256
6
ByLayer
370
-1
48
1.0
60
0
100
AcDbMText
10
87.5
20
210.0
30
0.0
210
0.0
220
0.0
230
1.0
1
\H5;100 k \H3;\U+2126
40
5.0
41
25.0
44
1.0
11
1.0
21
0.0
31
0.0
71
5
72
5
73
1
7
Ubuntu Condensed
0
LWPOLYLINE
5
B6
330
1B
100
AcDbEntity
67
0
8
0
62
256
6
ByLayer
370
-1
48
1.0
60
0
100
AcDbPolyline
90
4
70
1
38
0.0
39
0.0
10
100.0
20
200.0
40
0.0
41
0.0
42
0.0
10
125.0
20
200.0
40
0.0
41
0.0
42
0.0
10
125.0
20
220.0
40
0.0
41
0.0
42
0.0
10
100.0
20
220.0
40
0.0
41
0.0
42
0.0
210
0.0
220
0.0
230
1.0
0
MTEXT
5
B7
330
1B
100
AcDbEntity
67
0
8
0
62
256
6
ByLayer
370
-1
48
1.0
60
0
100
AcDbMText
10
112.5
20
210.0
30
0.0
210
0.0
220
0.0
230
1.0
1
\H5;120 k \H3;\U+2126
40
5.0
41
25.0
44
1.0
11
1.0
21
0.0
31
0.0
71
5
72
5
73
1
7
Ubuntu Condensed
0
LWPOLYLINE
5
B8
330
1B
100
AcDbEntity
67
0
8
0
62
256
6
ByLayer
370
-1
48
1.0
60
0
100
AcDbPolyline
90
4
70
1
38
0.0
39
0.0
10
125.0
20
200.0
40
0.0
41
0.0
42
0.0
10
150.0
20
200.0
40
0.0
41
0.0
42
0.0
10
150.0
20
220.0
40
0.0
41
0.0
42
0.0
10
125.0
20
220.0
40
0.0
41
0.0
42
0.0
210
0.0
220
0.0
230
1.0
0
MTEXT
5
B9
330
1B
100
AcDbEntity
67
0
8
0
62
256
6
ByLayer
370
-1
48
1.0
60
0
100
AcDbMText
10
137.5
20
210.0
30
0.0
210
0.0
220
0.0
230
1.0
1
\H5;150 k \H3;\U+2126
40
5.0
41
25.0
44
1.0
11
1.0
21
0.0
31
0.0
71
5
72
5
73
1
7
Ubuntu Condensed
0
LWPOLYLINE
5
BA
330
1B
100
AcDbEntity
67
0
8
0
62
256
6
ByLayer
370
-1
48
1.0
60
0
100
AcDbPolyline
90
4
70
1
38
0.0
39
0.0
10
150.0
20
200.0
40
0.0
41
0.0
42
0.0
10
175.0
20
200.0
40
0.0
41
0.0
42
0.0
10
175.0
20
220.0
40
0.0
41
0.0
42
0.0
10
150.0
20
220.0
40
0.0
41
0.0
42
0.0
210
0.0
220
0.0
230
1.0
0
MTEXT
5
BB
330
1B
100
AcDbEntity
67
0
8
0
62
256
6
ByLayer
370
-1
48
1.0
60
0
100
AcDbMText
10
162.5
20
210.0
30
0.0
210
0.0
220
0.0
230
1.0
1
\H5;180 k \H3;\U+2126
40
5.0
41
25.0
44
1.0
11
1.0
21
0.0
31
0.0
71
5
72
5
73
1
7
Ubuntu Condensed
0
LWPOLYLINE
5
BC
330
1B
100
AcDbEntity
67
0
8
0
62
256
6
ByLayer
370
-1
48
1.0
60
0
100
AcDbPolyline
90
4
70
1
38
0.0
39
0.0
10
0.0
20
220.0
40
0.0
41
0.0
42
0.0
10
25.0
20
220.0
40
0.0
41
0.0
42
0.0
10
25.0
20
240.0
40
0.0
41
0.0
42
0.0
10
0.0
20
240.0
40
0.0
41
0.0
42
0.0
210
0.0
220
0.0
230
1.0
0
MTEXT
5
BD
330
1B
100
AcDbEntity
67
0
8
0
62
256
6
ByLayer
370
-1
48
1.0
60
0
100
AcDbMText
10
12.5
20
230.0
30
0.0
210
0.0
220
0.0
230
1.0
1
\H5;200 k \H3;\U+2126
40
5.0
41
25.0
44
1.0
11
1.0
21
0.0
31
0.0
71
5
72
5
73
1
7
Ubuntu Condensed
0
LWPOLYLINE
5
BE
330
1B
100
AcDbEntity
67
0
8
0
62
256
6
ByLayer
370
-1
48
1.0
60
0
100
AcDbPolyline
90
4
70
1
38
0.0
39
0.0
10
25.0
20
220.0
40
0.0
41
0.0
42
0.0
10
50.0
20
220.0
40
0.0
41
0.0
42
0.0
10
50.0
20
240.0
40
0.0
41
0.0
42
0.0
10
25.0
20
240.0
40
0.0
41
0.0
42
0.0
210
0.0
220
0.0
230
1.0
0
MTEXT
5
BF
330
1B
100
AcDbEntity
67
0
8
0
62
256
6
ByLayer
370
-1
48
1.0
60
0
100
AcDbMText
10
37.5
20
230.0
30
0.0
210
0.0
220
0.0
230
1.0
1
\H5;220 k \H3;\U+2126
40
5.0
41
25.0
44
1.0
11
1.0
21
0.0
31
0.0
71
5
72
5
73
1
7
Ubuntu Condensed
0
LWPOLYLINE
5
C0
330
1B
100
AcDbEntity
67
0
8
0
62
256
6
ByLayer
370
-1
48
1.0
60
0
100
AcDbPolyline
90
4
70
1
38
0.0
39
0.0
10
50.0
20
220.0
40
0.0
41
0.0
42
0.0
10
75.0
20
220.0
40
0.0
41
0.0
42
0.0
10
75.0
20
240.0
40
0.0
41
0.0
42
0.0
10
50.0
20
240.0
40
0.0
41
0.0
42
0.0
210
0.0
220
0.0
230
1.0
0
MTEXT
5
C1
330
1B
100
AcDbEntity
67
0
8
0
62
256
6
ByLayer
370
-1
48
1.0
60
0
100
AcDbMText
10
62.5
20
230.0
30
0.0
210
0.0
220
0.0
230
1.0
1
\H5;270 k \H3;\U+2126
40
5.0
41
25.0
44
1.0
11
1.0
21
0.0
31
0.0
71
5
72
5
73
1
7
Ubuntu Condensed
0
LWPOLYLINE
5
C2
330
1B
100
AcDbEntity
67
0
8
0
62
256
6
ByLayer
370
-1
48
1.0
60
0
100
AcDbPolyline
90
4
70
1
38
0.0
39
0.0
10
75.0
20
220.0
40
0.0
41
0.0
42
0.0
10
100.0
20
220.0
40
0.0
41
0.0
42
0.0
10
100.0
20
240.0
40
0.0
41
0.0
42
0.0
10
75.0
20
240.0
40
0.0
41
0.0
42
0.0
210
0.0
220
0.0
230
1.0
0
MTEXT
5
C3
330
1B
100
AcDbEntity
67
0
8
0
62
256
6
ByLayer
370
-1
48
1.0
60
0
100
AcDbMText
10
87.5
20
230.0
30
0.0
210
0.0
220
0.0
230
1.0
1
\H5;300 k \H3;\U+2126
40
5.0
41
25.0
44
1.0
11
1.0
21
0.0
31
0.0
71
5
72
5
73
1
7
Ubuntu Condensed
0
LWPOLYLINE
5
C4
330
1B
100
AcDbEntity
67
0
8
0
62
256
6
ByLayer
370
-1
48
1.0
60
0
100
AcDbPolyline
90
4
70
1
38
0.0
39
0.0
10
100.0
20
220.0
40
0.0
41
0.0
42
0.0
10
125.0
20
220.0
40
0.0
41
0.0
42
0.0
10
125.0
20
240.0
40
0.0
41
0.0
42
0.0
10
100.0
20
240.0
40
0.0
41
0.0
42
0.0
210
0.0
220
0.0
230
1.0
0
MTEXT
5
C5
330
1B
100
AcDbEntity
67
0
8
0
62
256
6
ByLayer
370
-1
48
1.0
60
0
100
AcDbMText
10
112.5
20
230.0
30
0.0
210
0.0
220
0.0
230
1.0
1
\H5;330 k \H3;\U+2126
40
5.0
41
25.0
44
1.0
11
1.0
21
0.0
31
0.0
71
5
72
5
73
1
7
Ubuntu Condensed
0
LWPOLYLINE
5
C6
330
1B
100
AcDbEntity
67
0
8
0
62
256
6
ByLayer
370
-1
48
1.0
60
0
100
AcDbPolyline
90
4
70
1
38
0.0
39
0.0
10
125.0
20
220.0
40
0.0
41
0.0
42
0.0
10
150.0
20
220.0
40
0.0
41
0.0
42
0.0
10
150.0
20
240.0
40
0.0
41
0.0
42
0.0
10
125.0
20
240.0
40
0.0
41
0.0
42
0.0
210
0.0
220
0.0
230
1.0
0
MTEXT
5
C7
330
1B
100
AcDbEntity
67
0
8
0
62
256
6
ByLayer
370
-1
48
1.0
60
0
100
AcDbMText
10
137.5
20
230.0
30
0.0
210
0.0
220
0.0
230
1.0
1
\H5;380 k \H3;\U+2126
40
5.0
41
25.0
44
1.0
11
1.0
21
0.0
31
0.0
71
5
72
5
73
1
7
Ubuntu Condensed
0
LWPOLYLINE
5
C8
330
1B
100
AcDbEntity
67
0
8
0
62
256
6
ByLayer
370
-1
48
1.0
60
0
100
AcDbPolyline
90
4
70
1
38
0.0
39
0.0
10
150.0
20
220.0
40
0.0
41
0.0
42
0.0
10
175.0
20
220.0
40
0.0
41
0.0
42
0.0
10
175.0
20
240.0
40
0.0
41
0.0
42
0.0
10
150.0
20
240.0
40
0.0
41
0.0
42
0.0
210
0.0
220
0.0
230
1.0
0
MTEXT
5
C9
330
1B
100
AcDbEntity
67
0
8
0
62
256
6
ByLayer
370
-1
48
1.0
60
0
100
AcDbMText
10
162.5
20
230.0
30
0.0
210
0.0
220
0.0
230
1.0
1
\H5;470 k \H3;\U+2126
40
5.0
41
25.0
44
1.0
11
1.0
21
0.0
31
0.0
71
5
72
5
73
1
7
Ubuntu Condensed
0
LWPOLYLINE
5
CA
330
1B
100
AcDbEntity
67
0
8
0
62
256
6
ByLayer
370
-1
48
1.0
60
0
100
AcDbPolyline
90
4
70
1
38
0.0
39
0.0
10
0.0
20
240.0
40
0.0
41
0.0
42
0.0
10
25.0
20
240.0
40
0.0
41
0.0
42
0.0
10
25.0
20
260.0
40
0.0
41
0.0
42
0.0
10
0.0
20
260.0
40
0.0
41
0.0
42
0.0
210
0.0
220
0.0
230
1.0
0
MTEXT
5
CB
330
1B
100
AcDbEntity
67
0
8
0
62
256
6
ByLayer
370
-1
48
1.0
60
0
100
AcDbMText
10
12.5
20
250.0
30
0.0
210
0.0
220
0.0
230
1.0
1
\H5;510 k \H3;\U+2126
40
5.0
41
25.0
44
1.0
11
1.0
21
0.0
31
0.0
71
5
72
5
73
1
7
Ubuntu Condensed
0
LWPOLYLINE
5
CC
330
1B
100
AcDbEntity
67
0
8
0
62
256
6
ByLayer
370
-1
48
1.0
60
0
100
AcDbPolyline
90
4
70
1
38
0.0
39
0.0
10
25.0
20
240.0
40
0.0
41
0.0
42
0.0
10
50.0
20
240.0
40
0.0
41
0.0
42
0.0
10
50.0
20
260.0
40
0.0
41
0.0
42
0.0
10
25.0
20
260.0
40
0.0
41
0.0
42
0.0
210
0.0
220
0.0
230
1.0
0
MTEXT
5
CD
330
1B
100
AcDbEntity
67
0
8
0
62
256
6
ByLayer
370
-1
48
1.0
60
0
100
AcDbMText
10
37.5
20
250.0
30
0.0
210
0.0
220
0.0
230
1.0
1
\H5;560 k \H3;\U+2126
40
5.0
41
25.0
44
1.0
11
1.0
21
0.0
31
0.0
71
5
72
5
73
1
7
Ubuntu Condensed
0
LWPOLYLINE
5
CE
330
1B
100
AcDbEntity
67
0
8
0
62
256
6
ByLayer
370
-1
48
1.0
60
0
100
AcDbPolyline
90
4
70
1
38
0.0
39
0.0
10
50.0
20
240.0
40
0.0
41
0.0
42
0.0
10
75.0
20
240.0
40
0.0
41
0.0
42
0.0
10
75.0
20
260.0
40
0.0
41
0.0
42
0.0
10
50.0
20
260.0
40
0.0
41
0.0
42
0.0
210
0.0
220
0.0
230
1.0
0
MTEXT
5
CF
330
1B
100
AcDbEntity
67
0
8
0
62
256
6
ByLayer
370
-1
48
1.0
60
0
100
AcDbMText
10
62.5
20
250.0
30
0.0
210
0.0
220
0.0
230
1.0
1
\H5;680 k \H3;\U+2126
40
5.0
41
25.0
44
1.0
11
1.0
21
0.0
31
0.0
71
5
72
5
73
1
7
Ubuntu Condensed
0
LWPOLYLINE
5
D0
330
1B
100
AcDbEntity
67
0
8
0
62
256
6
ByLayer
370
-1
48
1.0
60
0
100
AcDbPolyline
90
4
70
1
38
0.0
39
0.0
10
75.0
20
240.0
40
0.0
41
0.0
42
0.0
10
100.0
20
240.0
40
0.0
41
0.0
42
0.0
10
100.0
20
260.0
40
0.0
41
0.0
42
0.0
10
75.0
20
260.0
40
0.0
41
0.0
42
0.0
210
0.0
220
0.0
230
1.0
0
MTEXT
5
D1
330
1B
100
AcDbEntity
67
0
8
0
62
256
6
ByLayer
370
-1
48
1.0
60
0
100
AcDbMText
10
87.5
20
250.0
30
0.0
210
0.0
220
0.0
230
1.0
1
\H5;750 k \H3;\U+2126
40
5.0
41
25.0
44
1.0
11
1.0
21
0.0
31
0.0
71
5
72
5
73
1
7
Ubuntu Condensed
0
LWPOLYLINE
5
D2
330
1B
100
AcDbEntity
67
0
8
0
62
256
6
ByLayer
370
-1
48
1.0
60
0
100
AcDbPolyline
90
4
70
1
38
0.0
39
0.0
10
100.0
20
240.0
40
0.0
41
0.0
42
0.0
10
125.0
20
240.0
40
0.0
41
0.0
42
0.0
10
125.0
20
260.0
40
0.0
41
0.0
42
0.0
10
100.0
20
260.0
40
0.0
41
0.0
42
0.0
210
0.0
220
0.0
230
1.0
0
MTEXT
5
D3
330
1B
100
AcDbEntity
67
0
8
0
62
256
6
ByLayer
370
-1
48
1.0
60
0
100
AcDbMText
10
112.5
20
250.0
30
0.0
210
0.0
220
0.0
230
1.0
1
\H5;820 k \H3;\U+2126
40
5.0
41
25.0
44
1.0
11
1.0
21
0.0
31
0.0
71
5
72
5
73
1
7
Ubuntu Condensed
0
LWPOLYLINE
5
D4
330
1B
100
AcDbEntity
67
0
8
0
62
256
6
ByLayer
370
-1
48
1.0
60
0
100
AcDbPolyline
90
4
70
1
38
0.0
39
0.0
10
125.0
20
240.0
40
0.0
41
0.0
42
0.0
10
150.0
20
240.0
40
0.0
41
0.0
42
0.0
10
150.0
20
260.0
40
0.0
41
0.0
42
0.0
10
125.0
20
260.0
40
0.0
41
0.0
42
0.0
210
0.0
220
0.0
230
1.0
0
MTEXT
5
D5
330
1B
100
AcDbEntity
67
0
8
0
62
256
6
ByLayer
370
-1
48
1.0
60
0
100
AcDbMText
10
137.5
20
250.0
30
0.0
210
0.0
220
0.0
230
1.0
1
\H5;1 M \H3;\U+2126
40
5.0
41
25.0
44
1.0
11
1.0
21
0.0
31
0.0
71
5
72
5
73
1
7
Ubuntu Condensed
0
LWPOLYLINE
5
D6
330
1B
100
AcDbEntity
67
0
8
0
62
256
6
ByLayer
370
-1
48
1.0
60
0
100
AcDbPolyline
90
4
70
1
38
0.0
39
0.0
10
150.0
20
240.0
40
0.0
41
0.0
42
0.0
10
175.0
20
240.0
40
0.0
41
0.0
42
0.0
10
175.0
20
260.0
40
0.0
41
0.0
42
0.0
10
150.0
20
260.0
40
0.0
41
0.0
42
0.0
210
0.0
220
0.0
230
1.0
0
MTEXT
5
D7
330
1B
100
AcDbEntity
67
0
8
0
62
256
6
ByLayer
370
-1
48
1.0
60
0
100
AcDbMText
10
162.5
20
250.0
30
0.0
210
0.0
220
0.0
230
1.0
1
\H5;1.2 M \H3;\U+2126
40
5.0
41
25.0
44
1.0
11
1.0
21
0.0
31
0.0
71
5
72
5
73
1
7
Ubuntu Condensed
0
LWPOLYLINE
5
D8
330
1B
100
AcDbEntity
67
0
8
0
62
256
6
ByLayer
370
-1
48
1.0
60
0
100
AcDbPolyline
90
4
70
1
38
0.0
39
0.0
10
235.0
20
0.0
40
0.0
41
0.0
42
0.0
10
260.0
20
0.0
40
0.0
41
0.0
42
0.0
10
260.0
20
20.0
40
0.0
41
0.0
42
0.0
10
235.0
20
20.0
40
0.0
41
0.0
42
0.0
210
0.0
220
0.0
230
1.0
0
MTEXT
5
D9
330
1B
100
AcDbEntity
67
0
8
0
62
256
6
ByLayer
370
-1
48
1.0
60
0
100
AcDbMText
10
247.5
20
10.0
30
0.0
210
0.0
220
0.0
230
1.0
1
\H5;1.5 M \H3;\U+2126
40
5.0
41
25.0
44
1.0
11
1.0
21
0.0
31
0.0
71
5
72
5
73
1
7
Ubuntu Condensed
0
LWPOLYLINE
5
DA
330
1B
100
AcDbEntity
67
0
8
0
62
256
6
ByLayer
370
-1
48
1.0
60
0
100
AcDbPolyline
90
4
70
1
38
0.0
39
0.0
10
260.0
20
0.0
40
0.0
41
0.0
42
0.0
10
285.0
20
0.0
40
0.0
41
0.0
42
0.0
10
285.0
20
20.0
40
0.0
41
0.0
42
0.0
10
260.0
20
20.0
40
0.0
41
0.0
42
0.0
210
0.0
220
0.0
230
1.0
0
MTEXT
5
DB
330
1B
100
AcDbEntity
67
0
8
0
62
256
6
ByLayer
370
-1
48
1.0
60
0
100
AcDbMText
10
272.5
20
10.0
30
0.0
210
0.0
220
0.0
230
1.0
1
\H5;1.8 M \H3;\U+2126
40
5.0
41
25.0
44
1.0
11
1.0
21
0.0
31
0.0
71
5
72
5
73
1
7
Ubuntu Condensed
0
LWPOLYLINE
5
DC
330
1B
100
AcDbEntity
67
0
8
0
62
256
6
ByLayer
370
-1
48
1.0
60
0
100
AcDbPolyline
90
4
70
1
38
0.0
39
0.0
10
285.0
20
0.0
40
0.0
41
0.0
42
0.0
10
310.0
20
0.0
40
0.0
41
0.0
42
0.0
10
310.0
20
20.0
40
0.0
41
0.0
42
0.0
10
285.0
20
20.0
40
0.0
41
0.0
42
0.0
210
0.0
220
0.0
230
1.0
0
MTEXT
5
DD
330
1B
100
AcDbEntity
67
0
8
0
62
256
6
ByLayer
370
-1
48
1.0
60
0
100
AcDbMText
10
297.5
20
10.0
30
0.0
210
0.0
220
0.0
230
1.0
1
\H5;2 M \H3;\U+2126
40
5.0
41
25.0
44
1.0
11
1.0
21
0.0
31
0.0
71
5
72
5
73
1
7
Ubuntu Condensed
0
LWPOLYLINE
5
DE
330
1B
100
AcDbEntity
67
0
8
0
62
256
6
ByLayer
370
-1
48
1.0
60
0
100
AcDbPolyline
90
4
70
1
38
0.0
39
0.0
10
310.0
20
0.0
40
0.0
41
0.0
42
0.0
10
335.0
20
0.0
40
0.0
41
0.0
42
0.0
10
335.0
20
20.0
40
0.0
41
0.0
42
0.0
10
310.0
20
20.0
40
0.0
41
0.0
42
0.0
210
0.0
220
0.0
230
1.0
0
MTEXT
5
DF
330
1B
100
AcDbEntity
67
0
8
0
62
256
6
ByLayer
370
-1
48
1.0
60
0
100
AcDbMText
10
322.5
20
10.0
30
0.0
210
0.0
220
0.0
230
1.0
1
\H5;2.2 M \H3;\U+2126
40
5.0
41
25.0
44
1.0
11
1.0
21
0.0
31
0.0
71
5
72
5
73
1
7
Ubuntu Condensed
0
LWPOLYLINE
5
E0
330
1B
100
AcDbEntity
67
0
8
0
62
256
6
ByLayer
370
-1
48
1.0
60
0
100
AcDbPolyline
90
4
70
1
38
0.0
39
0.0
10
335.0
20
0.0
40
0.0
41
0.0
42
0.0
10
360.0
20
0.0
40
0.0
41
0.0
42
0.0
10
360.0
20
20.0
40
0.0
41
0.0
42
0.0
10
335.0
20
20.0
40
0.0
41
0.0
42
0.0
210
0.0
220
0.0
230
1.0
0
MTEXT
5
E1
330
1B
100
AcDbEntity
67
0
8
0
62
256
6
ByLayer
370
-1
48
1.0
60
0
100
AcDbMText
10
347.5
20
10.0
30
0.0
210
0.0
220
0.0
230
1.0
1
\H5;2.7 M \H3;\U+2126
40
5.0
41
25.0
44
1.0
11
1.0
21
0.0
31
0.0
71
5
72
5
73
1
7
Ubuntu Condensed
0
LWPOLYLINE
5
E2
330
1B
100
AcDbEntity
67
0
8
0
62
256
6
ByLayer
370
-1
48
1.0
60
0
100
AcDbPolyline
90
4
70
1
38
0.0
39
0.0
10
360.0
20
0.0
40
0.0
41
0.0
42
0.0
10
385.0
20
0.0
40
0.0
41
0.0
42
0.0
10
385.0
20
20.0
40
0.0
41
0.0
42
0.0
10
360.0
20
20.0
40
0.0
41
0.0
42
0.0
210
0.0
220
0.0
230
1.0
0
MTEXT
5
E3
330
1B
100
AcDbEntity
67
0
8
0
62
256
6
ByLayer
370
-1
48
1.0
60
0
100
AcDbMText
10
372.5
20
10.0
30
0.0
210
0.0
220
0.0
230
1.0
1
\H5;3.3 M \H3;\U+2126
40
5.0
41
25.0
44
1.0
11
1.0
21
0.0
31
0.0
71
5
72
5
73
1
7
Ubuntu Condensed
0
LWPOLYLINE
5
E4
330
1B
100
AcDbEntity
67
0
8
0
62
256
6
ByLayer
370
-1
48
1.0
60
0
100
AcDbPolyline
90
4
70
1
38
0.0
39
0.0
10
385.0
20
0.0
40
0.0
41
0.0
42
0.0
10
410.0
20
0.0
40
0.0
41
0.0
42
0.0
10
410.0
20
20.0
40
0.0
41
0.0
42
0.0
10
385.0
20
20.0
40
0.0
41
0.0
42
0.0
210
0.0
220
0.0
230
1.0
0
MTEXT
5
E5
330
1B
100
AcDbEntity
67
0
8
0
62
256
6
ByLayer
370
-1
48
1.0
60
0
100
AcDbMText
10
397.5
20
10.0
30
0.0
210
0.0
220
0.0
230
1.0
1
\H5;3.9 M \H3;\U+2126
40
5.0
41
25.0
44
1.0
11
1.0
21
0.0
31
0.0
71
5
72
5
73
1
7
Ubuntu Condensed
0
LWPOLYLINE
5
E6
330
1B
100
AcDbEntity
67
0
8
0
62
256
6
ByLayer
370
-1
48
1.0
60
0
100
AcDbPolyline
90
4
70
1
38
0.0
39
0.0
10
235.0
20
20.0
40
0.0
41
0.0
42
0.0
10
260.0
20
20.0
40
0.0
41
0.0
42
0.0
10
260.0
20
40.0
40
0.0
41
0.0
42
0.0
10
235.0
20
40.0
40
0.0
41
0.0
42
0.0
210
0.0
220
0.0
230
1.0
0
MTEXT
5
E7
330
1B
100
AcDbEntity
67
0
8
0
62
256
6
ByLayer
370
-1
48
1.0
60
0
100
AcDbMText
10
247.5
20
30.0
30
0.0
210
0.0
220
0.0
230
1.0
1
\H5;4.7 M \H3;\U+2126
40
5.0
41
25.0
44
1.0
11
1.0
21
0.0
31
0.0
71
5
72
5
73
1
7
Ubuntu Condensed
0
LWPOLYLINE
5
E8
330
1B
100
AcDbEntity
67
0
8
0
62
256
6
ByLayer
370
-1
48
1.0
60
0
100
AcDbPolyline
90
4
70
1
38
0.0
39
0.0
10
260.0
20
20.0
40
0.0
41
0.0
42
0.0
10
285.0
20
20.0
40
0.0
41
0.0
42
0.0
10
285.0
20
40.0
40
0.0
41
0.0
42
0.0
10
260.0
20
40.0
40
0.0
41
0.0
42
0.0
210
0.0
220
0.0
230
1.0
0
MTEXT
5
E9
330
1B
100
AcDbEntity
67
0
8
0
62
256
6
ByLayer
370
-1
48
1.0
60
0
100
AcDbMText
10
272.5
20
30.0
30
0.0
210
0.0
220
0.0
230
1.0
1
\H5;5.6 M \H3;\U+2126
40
5.0
41
25.0
44
1.0
11
1.0
21
0.0
31
0.0
71
5
72
5
73
1
7
Ubuntu Condensed
0
LWPOLYLINE
5
EA
330
1B
100
AcDbEntity
67
0
8
0
62
256
6
ByLayer
370
-1
48
1.0
60
0
100
AcDbPolyline
90
4
70
1
38
0.0
39
0.0
10
285.0
20
20.0
40
0.0
41
0.0
42
0.0
10
310.0
20
20.0
40
0.0
41
0.0
42
0.0
10
310.0
20
40.0
40
0.0
41
0.0
42
0.0
10
285.0
20
40.0
40
0.0
41
0.0
42
0.0
210
0.0
220
0.0
230
1.0
0
MTEXT
5
EB
330
1B
100
AcDbEntity
67
0
8
0
62
256
6
ByLayer
370
-1
48
1.0
60
0
100
AcDbMText
10
297.5
20
30.0
30
0.0
210
0.0
220
0.0
230
1.0
1
\H5;6.8 M \H3;\U+2126
40
5.0
41
25.0
44
1.0
11
1.0
21
0.0
31
0.0
71
5
72
5
73
1
7
Ubuntu Condensed
0
LWPOLYLINE
5
EC
330
1B
100
AcDbEntity
67
0
8
0
62
256
6
ByLayer
370
-1
48
1.0
60
0
100
AcDbPolyline
90
4
70
1
38
0.0
39
0.0
10
310.0
20
20.0
40
0.0
41
0.0
42
0.0
10
335.0
20
20.0
40
0.0
41
0.0
42
0.0
10
335.0
20
40.0
40
0.0
41
0.0
42
0.0
10
310.0
20
40.0
40
0.0
41
0.0
42
0.0
210
0.0
220
0.0
230
1.0
0
MTEXT
5
ED
330
1B
100
AcDbEntity
67
0
8
0
62
256
6
ByLayer
370
-1
48
1.0
60
0
100
AcDbMText
10
322.5
20
30.0
30
0.0
210
0.0
220
0.0
230
1.0
1
\H5;8.2 M \H3;\U+2126
40
5.0
41
25.0
44
1.0
11
1.0
21
0.0
31
0.0
71
5
72
5
73
1
7
Ubuntu Condensed
0
LWPOLYLINE
5
EE
330
1B
100
AcDbEntity
67
0
8
0
62
256
6
ByLayer
370
-1
48
1.0
60
0
100
AcDbPolyline
90
4
70
1
38
0.0
39
0.0
10
335.0
20
20.0
40
0.0
41
0.0
42
0.0
10
360.0
20
20.0
40
0.0
41
0.0
42
0.0
10
360.0
20
40.0
40
0.0
41
0.0
42
0.0
10
335.0
20
40.0
40
0.0
41
0.0
42
0.0
210
0.0
220
0.0
230
1.0
0
MTEXT
5
EF
330
1B
100
AcDbEntity
67
0
8
0
62
256
6
ByLayer
370
-1
48
1.0
60
0
100
AcDbMText
10
347.5
20
30.0
30
0.0
210
0.0
220
0.0
230
1.0
1
\H5;10 M \H3;\U+2126
40
5.0
41
25.0
44
1.0
11
1.0
21
0.0
31
0.0
71
5
72
5
73
1
7
Ubuntu Condensed
0
VIEWPORT
5
F4
330
F0
100
AcDbEntity
67
1
8
0
62
256
6
ByLayer
370
-1
48
1.0
60
0
100
AcDbViewport
10
0.0
20
0.0
30
0.0
40
297.0
41
210.0
68
1
69
1
12
50.0
22
100.0
13
0.0
23
0.0
14
10.0
24
10.0
15
10.0
25
10.0
16
0.0
26
0.0
36
1.0
17
0.0
27
0.0
37
0.0
42
50.0
43
0.0
44
0.0
45
250.0
50
0.0
51
0.0
72
1000
90
819232
110
0.0
120
0.0
130
0.0
111
1.0
121
0.0
131
0.0
112
0.0
122
1.0
132
0.0
0
ENDSEC
0
SECTION
2
OBJECTS
0
DICTIONARY
5
F9
330
0
100
AcDbDictionary
280
0
281
1
3
ACAD_GROUP
350
11
3
ACAD_LAYOUT
350
F3
3
ACAD_MLINESTYLE
350
A
3
ACAD_IMAGE_DICT
350
D
3
ACAD_IMAGE_VARS
350
20
0
DICTIONARY
5
11
330
F9
100
AcDbDictionary
280
0
281
1
0
DICTIONARY
5
F3
330
F9
100
AcDbDictionary
280
0
281
1
3
Model
350
1F
3
Layout1
350
F5
0
DICTIONARY
5
A
330
F9
100
AcDbDictionary
280
0
281
1
3
Standard
350
1A
0
DICTIONARY
5
D
330
F9
100
AcDbDictionary
280
0
281
1
0
LAYOUT
5
1F
330
F3
100
AcDbPlotSettings
1

2
none_device
4
ISO_A4_(210.00_x_297.00_MM)
6

40
7.5
41
20.0
42
7.5
43
20.0
44
210.0
45
297.0
46
0.0
47
0.0
48
0.0
49
0.0
140
0.0
141
0.0
142
1.0
143
1.0
70
11952
72
1
73
1
74
1
7

75
0
76
0
77
2
78
300
147
1.0
148
0.0
149
0.0
100
AcDbLayout
1
Model
71
0
10
-20.0
20
-7.5
11
277.0
21
202.5
12
0.0
22
0.0
32
0.0
14
25.7
24
19.5
34
0.0
15
231.3
25
175.5
35
0.0
146
0.0
13
0.0
23
0.0
33
0.0
16
1.0
26
0.0
36
0.0
17
0.0
27
1.0
37
0.0
76
0
330
1B
0
LAYOUT
5
F5
330
F3
100
AcDbPlotSettings
1

2
none_device
4
ISO_A4_(210.00_x_297.00_MM)
6

40
7.5
41
20.0
42
7.5
43
20.0
44
210.0
45
297.0
46
0.0
47
0.0
48
0.0
49
0.0
140
0.0
141
0.0
142
1.0
143
1.0
70
688
72
1
73
1
74
1
7

75
0
76
0
77
2
78
300
147
1.0
148
0.0
149
0.0
100
AcDbLayout
1
Layout1
71
1
10
-20.0
20
-7.5
11
277.0
21
202.5
12
0.0
22
0.0
32
0.0
14
25.7
24
19.5
34
0.0
15
231.3
25
175.5
35
0.0
146
0.0
13
0.0
23
0.0
33
0.0
16
1.0
26
0.0
36
0.0
17
0.0
27
1.0
37
0.0
76
0
330
F0
0
MLINESTYLE
5
1A
330
A
100
AcDbMlineStyle
2
Standard
70
0
3

62
256
51
90.0
52
90.0
71
2
49
0.5
62
256
6
ByLayer
49
-0.5
62
256
6
ByLayer
0
RASTERVARIABLES
5
20
330
D
100
AcDbRasterVariables
90
0
70
1
71
1
72
0
0
ENDSEC
0
EOF
